<?xml version="1.0" encoding="UTF-8"?>
<svg version="1.1" viewBox="0 0 2000 2000" width="500" height="500" xmlns="http://www.w3.org/2000/svg">
<path transform="translate(1242,221)" d="m0 0h30l40 4 23 5 17 5 20 8 19 10 17 11 18 13 14 12 11 12 9 11 12 15 10 15 14 26 9 21 7 22 4 13h7l8 2 44 1 28 4 30 8 25 9 21 9 21 10 15 10 18 14 19 14 11 9 15 13 11 9 7 7 7 9 11 12 9 11 10 13 13 22 13 21 8 16 11 25 11 30 8 25 5 21 4 30 2 36v28l-2 30-5 33-5 24-9 34-12 36-10 25-12 29-19 39-25 51-14 31-9 13-11 14-11 12-5 6-13 13-8 10-9 19v13l-9 7h-7l-6-2-1 4-6 15-7 11-10 14-7 12-4 9-7 7-8 11-7 9-2 1-12 1-3 4-13 2-38 2h-118l-17 2-16 4-6 3-21 21-6 5-14 16-8 7-12 11-14 14-11 9-20 15-20 13-16 9-40 20-28 13-40 20-15 5-23 5-39 7-30 4-40 3-29 1h-77l-32-2-23-3-35-6-31-7-27-8-25-10-17-8-17-7-26-12-15-8-23-11-22-12-24-15-18-12-24-15-13-9-11-9-13-10-6-3-2 5-4 5-9 5-5 2-8 1h-202l-9-3-10-9-6-12-1-4-1-155 6-11 8-10 9-7 6-4 1-2v-41l1-13 5-16 5-12 10-14 9-11 13-11 10-7-5-15-10-26-9-27-7-30-8-39-5-33-2-24-1-22v-53l3-44 6-39 6-27 12-42 18-53 9-22 12-25 2-5-7-7v-4l5-4h11v-13l5-10 11-14 13-17 13-18 10-16 12-17 12-14 12-13 6-7 8-7 15-13 13-11 16-12 15-11 15-10 21-13 35-18 29-12 21-8 43-14 25-7 11-2 11-1 23-1h35l35 2 28 4 25 6 27 8 22 8 27 12 29 16 19 11 4 1 9-11 11-13 12-13 17-17 11-9 13-10 20-13 16-9 22-10 30-10 21-5zm-876 938-9 9-6 10-3 8v33l1 5 8 1h23l2-1-5-38-3-18-4-8z" fill="#C9A44A"/>
<path transform="translate(1235,239)" d="m0 0h46l15 2 2 1 13 1 11-1 3 3 7 1 10 1 1 3 9 3 9 4 9 3v2h3l2 3 7 3 5 3v2l6 2 5 5 9 7v2h3l2 7 4 1 7 3 5 5 8 6 5 8-1 5 8 10 3 6v2h2l8 10v2l5 2 5 10 3 3 5 11 3 7v5h2l4 7 2 8 1 6 3 5 1 7 3 5 3 7v7l4 8 2 11v17l-1 7 2 10 2 2 2 7 4 10h6l4-1 4 2 10 2 27 9 8 5 12 7 4 3 14 7 5 4v2h2l4 5v2h2l6 8 7 8 7 11 11 12v2l4 2 5 6v2l2 1 7 11 1 5 3 1 4 8 3 3v2h3l-1 7v3l2-1 6 18 1 4h3l1 8 1 1 1 13h-2v7l3-1v9l-1 7h-2v26l-1 1 1 6-3 4 1 8-2 4-3 3h1v8l-2 7-2 1-1 5-3 3-1 6-3 3-1 7-3 1-1 5-7 14-8 14-11 15-9 11-5 6-7 6-5 5-9 7-5 5-19 13-10 8-6 7-7 8-6 7-5 3h-8l-6-4h-8l-9-1h-52l-26 1-7 1h-12l-15 2-7-3-2-7-3-1 1-6h-3l-2 6-2 1v-7l3-7h5l5-10 3-15 1-16 4-21 3-8 5-16 2-8h2l1-11 3-7 2-8 3-6 6-15 4-9 3-8h2l4-16 8-10 2-5v-6l-5-10-5-6-5-1-67-1-30-1-1-1-33-2v-1l16-1-1-18v-29l2 1v23l3 17 7 1 4-1 3-7 2-35 1-32v-42l-1-25-4-4-5-1-213-1h-174l-51 1-44 4-15 4-10 7-6 8-2 4-1 26v64l-1 12v117l-2 75v17l1 9v44l-3 3-11 1-3 2-15 3h-11v-2l-13 2-16 1v2l13-2 12 1-4 1v2l-2 1-12 1h-56l-12-1-10-2v-2l-7 1-5-3-7-2-1-4h-7l-6-4-3-3-8-3-4-1-6 1-6 2 11 7 7 8 5 8 2 7v11l-5 3h-2v2l-2 1-3 5-1 4-2 2 10-1 10-2h13l15 5 10 6 7 7 7 14 2 7v10l-5 14-9 10-8 3-12 2-89 1h-70l-12-3-10-6-7-6-4-6-4-11-1-6v-10l4-13 5-9 10-10 14-7 4-1h19l13 1 5-20 6-12 10-11 9-7 9-3 7-1h8l10 1-5-1-19-1 2-2 6-1 2-5 3-6-3 1v-2l-13-10-7-6-8-7-10-10-7-8-6-9-7-10-5-6-5-9-2-4v-2h-2l-4-5-1-3-3-3-6-10v-2h-3l-2-6v-2l-2-4-3-10-2-9-2-15-6-6-2-17v-7l2-10 1-2 4-1 2 1 1-16h-4l-1-2h-2v-12l1-4 1-11 3-6 2-6 2-5h2l2-13 2-4h2l1-4 2-3-2-2 9-8 2-3-5-2 1-4h2l2-4 6-9 6-7 7-3h3v-2l5-5 6-3 8-1 1-2 4-1h3v-2l9-4h4v-3h2v-2l5-1 4 2-3 2 9-3 10-5 15-6 20-6h43l-1-30 1-20 5-21 3-11 7-14 4-7 5-9h2l2-5 10-13h2l2-4 5-5 6-7 5-4h2v-2l13-9 16-10 21-9 24-7 15-2h40l15 2 26 8 17 7 17 10 14 10 10 10v2h2l3 5 5 3v4l8 4 7 1v3l3 3v2h2l1-2 2 1-1-3 3-12 3-10 3-6v-4h2l1-4 8-17 1-5h2l2-8 3-3 4-8-2-2 1-2 5-1 3-3 2-5 4-4 3-7h3l2-4h2l2-4 3-4h3l1-4h3l2-4h2l1-4 9-5 4-2 2-4 6-5 2-4 4-1 4-5 7-4h2v-2l8-4 7-1 1-4 4-3 6-2 7-1 4-3h2v-2l16-5 5-2 7-2 20-4 18-3z" fill="#273438"/>
<path transform="translate(1242,221)" d="m0 0h30l40 4 23 5 17 5 20 8 19 10 17 11 18 13 14 12 11 12 9 11 12 15 10 15 14 26 9 21 7 22 4 13 2 4 2 21v47h10l16 3 23 7 19 9 14 8 10 7 17 12 8 8 7 6 9 11 9 10 11 14 8 13 11 20 7 17 7 24 5 36 1 10v35l-5 33-8 26-12 26-9 17-10 16-10 13-11 13-21 21-13 10-24 16-24 13-4 1-1 5v21l1 10 4 1 16-24 9-10 10-9 12-7 12-4 7-1h25l19 4 14 5 10 6 8 7 8 9 7 11 9 17 3 7 21 3 12 5 11 7 7 6 11 15 5 10 2 5 2 13v10l-4 16-8 14-10 11-8 6-13 6-9 2-111 1v12l2 9 3 4v7l-4 8-9 10-11 7-6 2-9 1-37 1h-23l-6-1v-15l9-2 28-3 31-2 8-1 1-2 1-12v-11l-1-13-66 1-14-1-12-4-10-6-10-9-8-10-8-17-3-12v-17l2-11 6-15 7-11 6-8 8-7 10-7 15-7v-23l-42 1h-113l-7 15-8 16-7 11-9 10-16 8 2 14 1 87 5 15 7 12 10 10 17 10 16 2 25 1 3 3-1 6-6 5-6 2h-4l-1-5-9-2h-6l-6 5-9-1-13-5-8-4-13-10-8-8-5-8-6-17-2-13v-75l1-26-47-1-173-1-2-1v9l-4 30-7 2h-11v-26l1-14-19 1-43 1-126 1h-45l-10-4-7-6-7-10-4-15-1-9v-14l-7 2h-93l-42-1v7l16 5 10 6 9 8 7 11 5 10 4 15v17l-6 15-8 10-10 10-12 7-5 2-8 1-102 1h-69l-13-2-17-10-8-7-8-10-6-12-3-12v-19l4-15 5-10 9-12 7-8 10-7 8-4 10-2h10l9 2 2-8 6-12 9-13 4-5 13-9 5-1-5-5-11-10-6-5v-2l-4-2-11-12-9-12-11-17-12-23-7-15-5-16-4-16-5-31v-32l4-26 5-21 7-22 8-17 8-13 8-12 14-16 11-11 14-11 15-10 15-9 18-8 17-6 24-5 15-2 2-1 2-22 9-35 8-21 9-17 9-14 7-9 11-12 11-11 13-10 19-12 23-11 21-7 29-6 9-1h24l20 3 22 5 24 8 25 12 16 10 16 13 5 4 4 2 7-15 7-16 8-15 2-4 5-5 13-15 7-8 9-10 18-18 11-9 13-10 20-13 16-9 22-10 30-10 21-5zm-7 18-16 1-20 4-16 3-7 2-7 3-14 4v2l-5 2-6 2-4 1-7 3-2 2v3l-7 1-8 4v2l-6 2-6 5-1 2-4 2-6 7-4 3v2l-4 2-9 5-1 4-4 2v2h-3l-1 4h-3l-5 6v2l-4 2v2l-3 1-5 9-3 3-3 5-4 2h-2l-1 3 2 2-3 4-2 5-2 2-2 7-2 1-3 9-7 13v3l-2 1-1 5-3 6-3 12-2 9 1 2-3-1v2h-2l-1-4-2-1v-3l-7-1-8-4v-4l-5-3-3-5h-2l-2-4-10-10-17-11-12-7-19-8-24-7-15-2h-40l-15 2-27 8-20 9-11 7-12 8-4 3v2l-4 2-5 5-7 6-4 5v2l-3 1-11 15v2h-2l-5 9-4 7-7 14-7 26-1 6-1 29 1 21h-43l-26 8-18 8-5 3h-3l1-2-5-1-4 1v2h-2v3h-5l-8 4v2h-6l-2 1v2l-10 2-6 4-3 3v2l-5 1-5 2-7 8-7 10v2l-2 1-1 3 5 2-4 5-7 6 2 2-3 4v3l-3 1-3 13v3h-2l-2 5-5 12-1 13-1 7v7h2l2 2h3l-1 16-3-1-3 1-2 5v6l-1 1 1 18 2 7 5 5 2 15 2 9 4 14 2 1-1 2 2 5h3l2 5 6 10 2 2 4 6h2l1 5 5 7 3 5 6 8 7 11 6 8 6 5 7 8 7 7 8 6 12 10 2 1 1 2 2-1-3 6-2 5-8 2v1l19 1 5 1-18-1-10 2-9 4-12 11-7 10-4 10-4 17-13-1h-19l-11 4-9 6-9 9-6 13-2 8v10l3 12 4 8 6 7 11 7 9 3 5 1h70l89-1 16-3 6-4 7-8 5-14v-10l-4-12-6-10-7-7-14-7-10-3h-13l-14 3h-6l2-2 1-4 3-5 2-1v-2l6-2 1-1v-11l-3-9-9-12-12-9 5-2 9-1 5 3 5 2 4 4 4 2h7l1 4 8 3 6 2 5-1v2l10 2 12 1h56l12-1 2-1v-2l4-1-13-1-12 2v-2l16-1 13-2v2h11l15-3 5-2 9-1 3-3v-47l-1-10 1-58 1-42v-106l1-16v-69l1-16 5-8 4-5 9-6 15-4 44-4 51-1h190l197 1 7 2 2 3 1 36v32l-2 54-1 12-3 7-4 1-7-1-3-17v-24h-2v29l1 18-16 1v1l24 1 9 1 1 1 34 1 63 1 6 2 7 10 2 5v6l-4 8-6 7-3 13-1 3h-2l-6 16-3 6-2 5-4 9-2 4-2 9-2 5-1 10h-2l-5 19-3 9-3 8-3 19-1 16-4 16-4 7h-5l-3 7v7l2-1 2-6h3l-1 6 3 1 2 7 8 3 14-2h14l11-1 27-1h51l6 1h5l6 4h8l7-5 7-8 4-5 7-8 12-9 19-13 5-5 10-8 6-7 5-5 9-10 13-18 6-10 10-20v-3l3-1 1-7 3-3 1-6 2-2 2-6 2-1 2-9v-6-2l3-2 1-4-1-7 3-4-1-7h1v-26h2l1-7v-9l-3 1v-7h2l-1-13-1-3-1-6h-3l-4-14-3-8-2 1v-8l1-2h-3l-2-5-3-3-3-6h-2l-1-5-7-11-2-1-2-5-5-5h-2l-2-4-9-10-8-12-9-10-3-5h-2l-2-4-2-3h-2v-2l-9-6-13-7-11-7-9-5-10-4-21-7-11-2-2-1-2 1h-6l-4-10-3-8-2-6-1-7 1-5v-17l-2-11-4-8v-7l-2-4-2-6-2-2-1-7-4-8-1-7-3-8-2-3h-2v-5l-5-12-4-8-2-1-5-10-5-2-2-5-6-7h-2l-2-6-8-11-1-4 1-2-5-8-5-4-8-7-8-4h-3l-2-7h-3l-2-4-7-5-5-5-6-2v-2l-7-4-6-3-1-2h-3v-2l-12-4-11-5-5-2v-2l-13-1-5-2-2-2-12 1-12-1-7-2-10-1z" fill="#192329"/>
<path transform="translate(1139,703)" d="m0 0h21l10 4 5 5 9 11 7 5 8 1h58l43 3h133l8 4 2 3-1 8-6 13-10 25-16 46-10 30-7 18-18 48-11 29-13 29-7 13-2 2h-60l-345 1h-86l-3-2 2-5 5-11 7-17 3-10 5-12 4-12 8-23 6-16 7-20 18-45 4-11 11-30 5-12 4-10 3-7 6-15 3-9 6-11 5-7 10-8 8-3 5-1h110z" fill="#C9A44A"/>
<path transform="translate(1079,1145)" d="m0 0h13l19 3 20 5 20 8 15 8 12 8 13 10 20 20 13 17 10 17 7 16 5 16 6 30v25l-6 30-8 24-10 18-10 14-13 15-14 14-17 12-18 10-11 4-12 4-26 5-8 1h-13l-15-2-25-5-21-9-17-10-10-7-14-12-11-12-11-14-7-10-8-16-6-14-6-21-2-11-1-11v-16l2-19 8-29 9-22 8-14 16-23 11-12 13-12 13-9 13-8 24-9 23-6z" fill="#263338"/>
<path transform="translate(388,1081)" d="m0 0 10 1 9 3 24 6 18 7 15 10 10 9 5 5 7 8 8 14 5 13 4 15 1 14v39l-1 3 5 2 5 4 7 11 4 13v156l-1 7h-3l-2 5-4 5-9 5-5 2-8 1h-202l-9-3-10-9-6-12-1-4-1-155 6-11 8-10 9-7 6-4 1-2v-41l1-13 5-16 5-12 10-14 9-11 13-11 10-7 14-7 24-7zm-22 78-9 9-6 10-3 8v33l1 5 8 1h23l2-1-5-38-3-18-4-8z" fill="#273438"/>
<path transform="translate(908,568)" d="m0 0h423l1 1-1 87v47l-3 1-13 1-71 2h-44l-5-5-12-13-8-5-12-2h-14l-27 1-59 1h-74l-17 1-8 3-11 6-8 7h-2l-2 4-7 11-7 17-5 17-7 18-5 13h-1l-1-94-1-38v-52z" fill="#FAFAF8"/>
<path transform="translate(909,1695)" d="m0 0h306l75 2 66 2 66 3 58 4 71 4 21 3 7 3 3 3v6l-5 6-6 2-23 2-56 3-35 3-44 2-207 6-72 1h-95l-69-2-86-1-93-2-54-2-92-4-45-3-8-4-4-5v-6l3-5 8-4 12-2 44-3 89-5 90-4z" fill="#1A2429"/>
<path transform="translate(1139,703)" d="m0 0h21l10 4 5 5 9 11 7 5 8 1h58l43 3h133l8 4 2 3-1 8-6 13-10 25-16 46-10 30-7 18-18 48-11 29-12 27h-3l5-11 3-10 2-9 1-7 3-11 3-7 3-11 3-12 5-15 7-14 6-17 3-7 3-9 5-13 3-8 3-10 5-12 2-6-1-12-10 1-14 1h-16l-7-1-15-1-9-1h-2v-2h-12l-6 1h-18l-5-2-6-1-1-2-3-1-25-2-4-1-8 1-4 1h-5l-3 3-10 1-3-3h-5l-3 3h-8l-1 2-7-1h-4l-6 1-3-1-2-8-4-1-5 1-3-6 1-4-4-2-3-3h-5l-5 1-4-1v-2l-6 1-2-1v-3l-2 3-7-3-6 1-7 6-4-1-6 2h-6l-5 5h-3l-1 7h-4l-2-6-2 2 1 4-6 1-4-3-8 1-3-3-5 2-4-1-5 8-10 3-8 4h-3l2-6 2-2-5-2-5 3-6 2-1 2h-2l-3-3-5 1-1 4-4 1-1 5-5 2-2 4-5 1-2 5-4 2-3 1-1 6-7 3-2 4-1 3-2 1v8l-2 2-1 2-2-1 1 3h-2v2h-3l-1 4-2 4h-2l1 3-3 5-4 3-3 9-2 11-4 4-3 13-7 13-2 10-3 4-2 4-3 7-1 4h-2v2l-3 3-2 13-1 2h-2l-1 4-4 1-3 10-11 7-6 3-5 2-5 3-6 4-1 8 1 3 6 1h9v2h-38l-3-2 2-5 5-11 7-17 3-10 5-12 4-12 8-23 6-16 7-20 18-45 4-11 11-30 5-12 4-10 3-7 6-15 3-9 6-11 5-7 10-8 8-3 5-1h110z" fill="#D7B456"/>
<path transform="translate(388,1081)" d="m0 0 10 1 9 3 24 6 18 7 15 10 10 9 5 5 7 8 8 14 5 13 4 15 1 14v39l-1 3 5 2 5 4 7 11 4 13v156l-1 7h-3l-2 5-4 5-9 5-5 2-8 1h-202l-9-3-10-9-6-12-1-4-1-155 6-11 8-10 9-7 6-4 1-2v-41l1-13 5-16 5-12 10-14 9-11 13-11 10-7 14-7 24-7zm-22 78-9 9-6 10-3 8v33l1 5 8 1h23l2-1-5-38-3-18-4-8zm136 83-1 4 2 4 3 2v2h-2l-1-2-2 1 1-3-4-4-7-3-197 1-8 4-5 8-2 1-1 11 2 14 2 4v59 4l1 11v22l1 25 3 7 4 6 8 3 26-1 88-1 78 1 13-1 7-5 2-3v-3l-3 1-1 3-3 2v2l-3-2 1-7 3-30v-30l1-6h2l1-6 1 2 1 15 2 2 2-45 1-17-3-32-3-9-3-8-4-3z" fill="#1A2429"/>
<path transform="translate(1630,957)" d="m0 0h30l13 4 10 5 11 9 8 10 5 9 1 4v21h14l15 1 15 5 8 5 10 9 6 8 6 15 1 11-4 11-7 11-8 8-8 3-9 1h-202l-10-4-9-6-9-11-5-10-2-11v-9l2-10 7-14 9-10 8-7 9-4 5-1h23l14 1 3-15 4-9 7-11 8-8 7-5 10-5z" fill="#FCFCFC"/>
<path transform="translate(589,930)" d="m0 0h8l15 3 16 8 8 7 8 12 2 7v11l-5 3h-2v2l-2 1-3 5-1 4-2 2 10-1 10-2h13l15 5 10 6 7 7 7 14 2 7v10l-5 14-9 10-8 3-12 2-89 1h-70l-12-3-10-6-7-6-4-6-4-11-1-6v-10l4-13 5-9 10-10 14-7 4-1h19l13 1 5-20 6-12 10-11 9-7 9-3z" fill="#FCFCFB"/>
<path transform="translate(1064,1224)" d="m0 0h5l-1 15-4 34-1 8v12l2 6 9 4h93l2 1 1 5 2 75v22l-2 2h-44l-98-1-1-1-1-13-1-151 17-7 8-5z" fill="#F9F8F4"/>
<path transform="translate(868,574)" d="m0 0h17l1 1 1 145v116l-3 10-9 25-7 19-6 17-7 21-7 20-1 3-3-1-1-11v-350l4-8 5-5z" fill="#C9A44A"/>
<path transform="translate(833,363)" d="m0 0h40l15 2 26 8 17 7 17 10 14 10 10 10v2h2l9 15 7 11-5-2-16-10-21-13-15-9-16-8-17-7-23-5-10-1h-24l-23 3-17 4-20 8-9 6-11 7-4 3h-2v2l-5 2-1 3-9 7-7 8-2 3h-2l-1 4-6 8-7 12-9 21-6 19-2 13-2 49-2 2-24 1-15 2-29 7-21 9-16 9-9 6h-2v2l-7 5h-2l-2 4-13 13-5 7h-2l-1 4-3 3-9 14-8 16-6 16-7 38-2 23-1 2h-14l-2-1v-33l2-14 7-29 9-21 10-18 9-12 12-14h2l2-4 8-7 8-6 8-7 12-7 14-8 19-8 23-7h43l-1-30 1-20 5-21 3-11 7-14 4-7 5-9h2l2-5 10-13h2l2-4 5-5 6-7 5-4h2v-2l13-9 16-10 21-9 24-7z" fill="#F8F7F3"/>
<path transform="translate(1139,703)" d="m0 0h21l10 4 5 5 9 11 7 5 8 1h58l43 3h133l8 4 2 3-1 8-2 4h-70l-27 1h-46l-33-4-41-1-22-1-7-3-9-6v-2l-4-2-12-11-2-1h-90l-91 1-7 3-7 7-9 15-7 16-7 17-5 14-15 41-12 31-14 37-20 54-9 22-6 15v6h-19l-1-3 7-14 7-17 3-10 5-12 4-12 8-23 6-16 7-20 18-45 4-11 11-30 5-12 4-10 3-7 6-15 3-9 6-11 5-7 10-8 8-3 5-1h110z" fill="#FAFAF8"/>
<path transform="translate(1258,241)" d="m0 0h13l24 2 24 4 22 6 20 8 19 10v2l4 1 5 3v2l4 2 10 8 6 7-1 12-1 4-4-1-7-5v-2l-5-2-15-10-10-6-18-8-21-7-33-6-8-1h-44l-24 3-22 4-27 8-24 11-14 8-7 5h-3v2l-4 3h-3v2l-4 1v2l-7 5h-2v2l-6 4h-2l-2 4-12 11-6 7h-2l-2 5-10 13-5 8-7 12-8 15-10 24-5 13-7 12h-7l-2-1v-9l5-24 7-19 10-19 7-14 7-10 10-13 11-12 17-17 11-9 10-9 12-8 8-6 11-6 16-8 14-6 35-10 24-4z" fill="#F8F7F4"/>
<path transform="translate(981,607)" d="m0 0h303l8 7-1 5-8 7-21 1h-231l-72-1-5-7 1-7 3-4z" fill="#182228"/>
<path transform="translate(963,649)" d="m0 0h224l98 1 6 3 2 3v6l-5 5-8 2h-318l-5-1-2-4v-8l2-6z" fill="#192329"/>
<path transform="translate(384,1106)" d="m0 0h23l16 3 12 4 13 8 13 12 7 9 11 21 2 8 2 29v23l-1 1h-20l-1-42-4-14-6-12-6-8v-2h-2l-5-6-13-8-5-2-7-1h-29l-9 2-16 8-10 8-8 10-7 15-2 7-1 45h-21l-1-2v-27l1-14 4-15 6-15 6-10h2l2-5 9-9h2v-2l15-10 15-6z" fill="#F7F5F1"/>
<path transform="translate(498,409)" d="m0 0h11l9 2 11 8 7 7 7 10 5 13v11l-5 13-7 9-9 9-10 6-7 2-10 1-12-3-9-6-8-7-9-12-5-13v-16l2-7-1-2 5-6h2l2-5 2-2 9-5 13-6z" fill="#192329"/>
<path transform="translate(1079,1145)" d="m0 0h13l19 3 20 5 20 8 15 8 12 8 13 10 20 20 13 17 10 17 7 16 5 16 6 30v25l-6 30-8 24-10 18-10 14-13 15-14 14-17 12-18 10-11 4-12 4-26 5-8 1h-13l-15-2v-2h3l1-3h19l2 2 7-1 6-4 11-1 5-1 2-4 7-3 14-3 5-3 11-6 3-1v-2h2v-2l9-3 4-4h2v-2h2l2-4 4-2v-2l4-1v-3h2l1-6 4-4 5-1 6-8v-3l-5 4-9 4-2 1 1-9 8-4 1-2-3-1 1-3v-10l1-2 5 1v3l3-7-1-6-2-5 4-2 2-3 6 2 4 2-1 4 3-6 1-3h2l1-3 2 2 3-7 2-13v-10l1-2h2l-2-9-2-7 1-8 2 1-1-5 1-18 1-2-4-2-7-20-8-15-6-8v-3h-2l-4-7v-2h-2l-7-9-3-3-3-5v-2l-5-1-3-6-13-10-4-4-4-3-1-2h-3v-2l-6-1-2-2-7-2v-2h-5l-2-1h-6l-10-4-11-2-3-1h-9l-9-3v-2l-4 1-4-1v3h-5l-4-2-1 2h-6l-11 4-6 2h-4l-1 2h-6l-5 3-14 5-5 4-7 4-5 2v2l-5 2-4 1-2 4-8 2v2l-7 6-5 7-3 5-5 6-1 2h-2l-2 6-1 2h-2l-1 6-3 1-1 7-2 2-2 7-7 14-2 5h-1v-7l10-25 8-14 16-23 11-12 13-12 13-9 13-8 24-9 23-6z" fill="#1A242A"/>
<path transform="translate(1761,1032)" d="m0 0 4 2 7 7 5 8 5 13 1 11-4 11-7 11-8 8-8 3-9 1h-202l-10-4-9-6-9-11-1-7h3 3l7 6 9 3h165l34-3 16-4 7-4 4-9 2-13 3-8-2-8-6-5z" fill="#C3BEA4"/>
<path transform="translate(388,1148)" d="m0 0h14l15 4 10 6 8 8 5 8 2 7v42l-2 1h-56l-3-2-7-50-4-11v-4l6-5z" fill="#C9A44A"/>
<path transform="translate(1788,589)" d="m0 0h7l10 4 12 9 8 10 5 10 1 3v11l-6 11-7 7-5 6-5 5-9 6-2 1h-9l-10-5-17-17-6-9-1-3v-14l4-9 6-9 8-8 8-6z" fill="#192329"/>
<path transform="translate(868,574)" d="m0 0h17l1 1v19l-5 1-20-2-1 8-1 38-1 168-1 30-3 5-2 7-3 11h-2l-1 5h-1l-1-14-1-196v-66l4-8 5-5z" fill="#FBFBFA"/>
<path transform="translate(475,1018)" d="m0 0h1l1 17 5 12 4 4 15 4 14 1 48-3 83-3 19-1 11-2 7-6 7-12 5-1h7l1-4 2 7v10l-5 14-9 10-8 3-12 2-89 1h-70l-12-3-10-6-7-6-4-6-4-11-1-6v-10z" fill="#C3BEA5"/>
<path transform="translate(1043,903)" d="m0 0 88 1h106l7 4v6l-6 9-4 1h-188l-9-2-2-2v-7l4-7z" fill="#192329"/>
<path transform="translate(833,353)" d="m0 0h5l4 2 6-1v2l5 1 2 1 24 1 4 2 1 2h10 3l6 3 10 1 1 3 5 2 1 2-4 1-11-4-17-5-15-2h-40l-15 2-27 8-20 9-11 7-12 8-4 2v2l-7 5-7 8h-2l-2 4-7 8-9 13h-2l-1 4-6 9-7 16-3 9-5 18-1 6-1 29v21h-40v-1l37-1h-27v-1l8-2-2-3 1-4 3-4 1-7 1-5 3-19 2-4v-10l-2-4h-2l-1 3 1-8 5-16 7-18 3-4v2h2v-2l3-1 1-2h2l2-5 5-1 3-6 5-2 1-2h2l2-5 6-7 7-6h2v-2h2l1-3h2l2-4 6-5h4v-2h2v-2l5-3 3-1 1-2h2l4-2 2 1 1-2 12-7 3 1 1-3 3-2 4-1 5-4 2 1 2-2 2 1 3-1 1-2 8-1 3-1v-2l5-1h13v-2z" fill="#273439"/>
<path transform="translate(1104,856)" d="m0 0h140l7 1 2 2v7l-5 6-7 2-16 1-144 1h-29l-2-3v-10l2-5 2-1z" fill="#19242A"/>
<path transform="translate(390,1286)" d="m0 0h8l10 5v2l4 1 6 8 1 3v17l-3 6-5 4-1 2 1 12 6 23v8l-1 1-10 1h-32l-1-1v-7l7-25 4-9-1-4-1-3-4-2-5-5-3-4-1-4v-7l3-9 5-6 10-6z" fill="#F8F6F2"/>
<path transform="translate(1089,1208)" d="m0 0 8 1 4 2 8 2 8 7 5 6 2 1v2h2l1 4 4 2 6 6v2h2v2h2l5 6v2h2l8 8v2l4 2 10 12 2 4-1 5h-7l-13-13-11-9-10-9-11-9-14-12-12-11-4-4-7 1v49l1 16 22 1 2 1h7l1 3-12 4-6 4-1 2-6 3-16 1-9-4-3-7v-12l4-31 3-26-4-1 9-5h3l-1-3h2v-2l9-4z" fill="#2C3739"/>
<path transform="translate(757,1372)" d="m0 0h8l6 3 5 5 8 13 1 1 12 1 6 3 2 4v7l-3 6-7 4-15 6-3 3-1 11-3 5-11 1-8-3-3-3-2-14-7-2-11-6-5-5-1-2v-7l4-5 11-7 6-7 4-6 5-5z" fill="#FDFDFD"/>
<path transform="translate(1085,1218)" d="m0 0 5 1 11 11 11 9 15 13 14 12 11 9 8 8 1 5h-78l-1-1-1-16v-47z" fill="#FAF9F7"/>
<path transform="translate(1079,1145)" d="m0 0h13l19 3 20 5 20 8 15 8 12 8 13 10 20 20 13 17 10 17 7 16 4 12v10l-1-2-4-2-7-20-8-15-6-8v-3h-2l-4-7v-2h-2l-7-9-3-3-3-5v-2l-5-1-3-6-13-10-4-4-4-3-1-2h-3v-2l-6-1-2-2-7-2v-2h-5l-2-1h-6l-10-4-11-2-3-1h-9l-9-3v-2l-4 1-4-1v3h-5l-4-2-1 2h-6l-11 4-6 2h-4l-1 2h-6l-5 3-14 5-5 4-7 4-5 2v2l-5 2-4 1-2 4-8 2v2l-7 6-5 7-3 5-5 6-1 2h-2l-2 6-1 2h-2l-1 6-3 1-1 7-2 2-2 7-7 14-2 5h-1v-7l10-25 8-14 16-23 11-12 13-12 13-9 13-8 24-9 23-6z" fill="#192329"/>
<path transform="translate(939,1276)" d="m0 0 4 5-2 11-1 2v15l2 8 4-1 1 2v7h-2l-1 2-3 4v8l2 2 2 8 3 1-1 3h3l2-1v2l6-1 3-3 2 1-2 6h-3l3 4 2 1-1 2h8l5-8 5 5-2 3-5 2-2 4h2l2 3-1 4-6-1-1 4 6 1v2l-4 1-7-3-6-5 1-2h2l1-8-3 2h-2l-3 1 2 10 4 2 3 3h4v3l4 1 4-1 6 4v2l2 1-1 1 6 4 4 7v2l-10-1v-6l-7-1-3-3 1-2-1-1-3 1v2h2l8 10 2 6 4 4 6 9 8 9 7 4 9 8 4 3v3l4 2 1 2 5 2 5 3h5l5 2v2h7l2 4 5 1-4 1-13-3-16-7-23-14-10-9-8-7-9-10-11-14-7-10-8-16-6-14-6-21-2-11-1-11v-16l2-19 3-12h2z" fill="#1A242A"/>
<path transform="translate(295,1245)" d="m0 0h38l23 1h137l5 2 1 7-1 1h-205l-2 43-2 25h-1l-1-6-2-43 1-18 4-7z" fill="#FCFCFC"/>
<path transform="translate(1547,719)" d="m0 0h12l10 4 7 6 5 8v13l-7 9-4 3-16 5h-10l-14-7-7-8-2-6 1-7 6-11 8-6z" fill="#FAF9F7"/>
<path transform="translate(885,1078)" d="m0 0 6 2 1 2-1 17-5 21-5 10-6 8-9 9-14 8-12 6-7 1h-13l-6-3-8-8-3-2 12-3 9-2 13-2 12-7 9-10 5-9 5-11 6-21 3-3 8-1z" fill="#192329"/>
<path transform="translate(658,722)" d="m0 0h15l10 4 7 6 5 8v11l-4 8-5 5-5 4-6 2h-15l-7-2-11-9-5-9v-8l3-7 4-5 9-6z" fill="#FAFAF8"/>
<path transform="translate(585,568)" d="m0 0 5 1-1 2-2 1 3 1-10 6-11 7-4 4-10 8-7 6-5 5-11 13-10 15-9 17-8 20-7 31-2 14h-1v-13h-4l-1-2h-2v-12l1-4 1-11 3-6 2-6 2-5h2l2-13 2-4h2l1-4 2-3-2-2 9-8 2-3-5-2 1-4h2l2-4 6-9 6-7 7-3h3v-2l5-5 6-3 8-1 1-2 4-1h3v-2l9-4h4v-3h2v-2z" fill="#273438"/>
<path transform="translate(981,607)" d="m0 0h303l5 5-3 1-1 4-3 1-1 2-4 1v3l-9 1h-5l3-1v-2l-9-1h-29l-2-1-4 1-8-1h-12l-2 1-8-1h-4-20l-5-1-1 2-5-2-7 1-6-1-3 1-7-1h-10l-3 1-3-1-5 1-8-1-3 1h-10l-5-1-5 1-4-1-6 1-9-2-1 2-5-2-4-1-1 2-2-4 2-3h2v2l9-3 5 1 9-1h30v2l2-1h11l5-1 4 1h21l6 1 5-1h12l13-1 10 1 10-1h17l22 1 22-1h16v-3h-302z" fill="#263238"/>
<path transform="translate(653,1256)" d="m0 0 10 1 9 5 6 7 2 5v10l-5 13-8 9-7 3h-13l-6-3-4-5-7-12-1-9 3-9 10-11 6-3z" fill="#FDFDFD"/>
<path transform="translate(1396,1472)" d="m0 0 13 1 8 5 6 10 1 4v14l-4 7-8 7-8 3-11-1-10-5-7-9-3-8 2-10 3-6 7-8 6-3z" fill="#1A2429"/>
<path transform="translate(1221,894)" d="m0 0h14l5 2v2l6 2 3 2v2l3 1 3 6-1 8-1 4-5 4-6 3h-9l-4-2h-13l-18-2h-28l3-2 61-1 5-2 4-7v-6l-6-3h-110l-84-1-5 5-2 4v7l3 4-1 2-5 1-5-4-2-3v-7l3-6 8-6 7 1 1-3 17-2 18 1h31l36 1 21-1h16l2-1h8l7-2h15z" fill="#D6B255"/>
<path transform="translate(1199,652)" d="m0 0h3v2l5-2 8 1 2-1 6 2h27l7 1h15l5-1 2 1h10l-2 5-5 2-1 3-5 2h-29-3-26l-4-1-4 1-6-1-1 2h-3l-6-1h-69v-1l7-1-1-2-2 1v-2l-3-1v-3l9-2 14-1 4 1 4-2 4 1 1-1 22-1h12z" fill="#263338"/>
<path transform="translate(861,593)" d="m0 0h14l6 1v1h-11l-8-1-1 14-1 257-2 23-4 21-3 6v10l4-6h1l-1 9-7 20-1 3-3-1-1-11v-242h1l1 154 1 11 1-2h2l1-9 2-3 2-7 2-4 1-30 1-168 1-38z" fill="#C3BC9D"/>
<path transform="translate(1056,1323)" d="m0 0h90l3 1v8l-2 7-6 2h-58l-28-1-2-1-1-11 2-4z" fill="#1F282B"/>
<path transform="translate(1089,1208)" d="m0 0 8 1 4 2 8 2 8 7 5 6 2 1v2h2l1 4 4 2 6 6v2h2v2h2l5 6v2h2l8 8v2l4 2 10 12 2 4-1 5h-7l-13-13-11-9-10-9-11-9-14-12-12-11-4-4-5 1-9 2-9 1 2-2 6-3h3l-1-3h2v-2l9-4z" fill="#192329"/>
<path transform="translate(1124,1362)" d="m0 0 22 1 2 5v11l-1 1-93-1-3-1-1-7 1-6 13-2z" fill="#263338"/>
<path transform="translate(1403,370)" d="m0 0h12l6 9 8 15 4 7 10 30 3 13-1 7-1 1h-9l-6-3-3-6-4-20-8-20-12-22-5-8v-2z" fill="#F7F6F1"/>
<path transform="translate(1256,386)" d="m0 0h11l2 1 1 22 14 1 2 2v11l-1 2-4 1h-11v18h-16v-20h-18v-12l1-1 15-1 1-22z" fill="#F6F4EF"/>
<path transform="translate(1039,1181)" d="m0 0h11l6 4-4 4-14 7-10 7-4 2v2l-6 4-11 11-1 2h-2l-2 5-2 2-4-1-1-3-4 2 5 2-1 5-5 5-6 9-10 18-3-2v-2l-4-1-1-4 10-17 8-10 5-7h2l2-5 8-11 9-9 13-10 4-1 2-4 6-3z" fill="#F4F2ED"/>
<path transform="translate(1157,849)" d="m0 0 26 2 23 1 1 1 31 2-2 2h-132l-50 1-2 1-1 4v10l1 2 71 1v1l-11 1h-12l-13 1-1 1-18 1h-9l-5-1-2-1h-3l-2-5-3-1-1-2v-8l4-7 7-3h3v-2l13-1 18 1 21-1h47z" fill="#D6B255"/>
<path transform="translate(499,433)" d="m0 0h7l8 4 5 6 2 7v8l-4 8-3 3h-2v2l-7 3h-7l-9-6-1-3h-2l-5-8 1-7 4-8 4-5 5-3z" fill="#C9A44A"/>
<path transform="translate(658,1122)" d="m0 0h7l10 9 11 11 6 2 13 1 1 3-1 10-4 2-18 1-12-2-8-7-6-7-5-10-1-4 3-6z" fill="#192329"/>
<path transform="translate(1517,519)" d="m0 0h14l17 4 19 7 14 9 6 6-2 5h-9l-19-6-28-7-12-2-2-2v-10z" fill="#C3BDA0"/>
<path transform="translate(1282,999)" d="m0 0h28l26 2v1l-33 1h-49l-42 1h-18l-31 2-21 1h-22l-17-1h-11l-6 1-4-1h-23l-5-1-18-1-23-1v-1l16-1 226-1z" fill="#0E1217"/>
<path transform="translate(963,649)" d="m0 0h51v1l-40 1v2l12 1 5 1 7 1 11 1 10 1 4 6h4l3 1v2l51 1v1h-119l-5-1-2-4v-8l2-6z" fill="#263338"/>
<path transform="translate(1356,1155)" d="m0 0 7 6 10 7 9 5 16 2 25 1 3 3-1 6-6 5-6 2h-4l-1-5-9-2h-6l-6 5-9-1-13-5 1-2-2-1v-2h-2v-2l-4 1-5-5-1-6-3-4v-2l5-1 2 5h4l-4-4z" fill="#182228"/>
<path transform="translate(1575,1171)" d="m0 0 8 1-3 1-1 3-4 2v2l6 1h41l5-1 1 3-8 4-12 2-37 1h-23l-6-1v-15l9-2z" fill="#0E1318"/>
<path transform="translate(1523,1710)" d="m0 0h28l21 3 7 3 3 3v6l-5 6-6 2-40 1v-7l10-4 3-1 1-6-11-2-1 2-10-5z" fill="#101418"/>
<path transform="translate(1053,1408)" d="m0 0 81 1v2h15l-1 2-10 2-3 1-22 2-10 1-28 1h-8l-17-4-10-3-1-2h3v-2z" fill="#192329"/>
<path transform="translate(382,1103)" d="m0 0h32l7 3 7 2 1 3-10-2-12-2h-23l-16 4-12 5-12 8-3 1v2l-8 7-4 5-1 2h-2l-2 5-7 14-5 16-1 5-1 14v29l-3 1-2-4 1-2v-18l-1-13-1-10 3-9v-1l-1-2h2l2-11 5-8 2-5 6-7h2l-1-3 5-2 3-4h3l1-3 4-1 2-5 10-4h3l1-3 7-3 11-2h8z" fill="#273439"/>
<path transform="translate(383,1016)" d="m0 0h18l1 3v39l-1 1h-16l-3-2v-38z" fill="#0F1318"/>
<path transform="translate(563,773)" d="m0 0 7 1 9 8 7 10 4 5v6l-5 8-7 4-4-1-6-7-9-14-2-9 1-7z" fill="#182228"/>
<path transform="translate(1092,1018)" d="m0 0h7l3 1v10l-4 30-7 2h-11v-42z" fill="#0F1318"/>
<path transform="translate(1338,1116)" d="m0 0 3 1 2 9 5 15 7 12 2 5-1 3 4 2 1 3h-5l-2-5h-5l5 9 1 4 3 3h4v2h2v2l3 1-4 1-9-5-11-9-7-7-5-8-5-13v-10l2-2 4 8 5 9 2 2 1-1-4-21-1-1v-7z" fill="#10141A"/>
<path transform="translate(1691,972)" d="m0 0 7 1 3 3 1 8 5 1 3 7 1 12v5h2v2h2l2 6h12l14 3 16 5h2l2 4 7 5 2 4 9 13 3 11v15l-4 10-4 6h-2l-1 4-8 7-6 3-4 1-15 1h-24l-100-1-42-1v-1h173l13-2 6-4 8-9 7-14 1-10-4-13-5-10-9-10-8-6-15-6-4-1-22-1-7-1-1-21-3-8-9-13z" fill="#273439"/>
<path transform="translate(590,867)" d="m0 0 15 1 8 3 9 6 7 8 5 4 2 5v3l-4 1-21-4-6-3-10-7-3-3-3-9z" fill="#192329"/>
<path transform="translate(757,1369)" d="m0 0h7l7 3 6 5 8 13 1 1 15 2 4 2 3 5-1 12-3 5-3 3-20 9-3 14-4 5h-14l-10-4-3-6-1-8-8-5-11-8-4-6v-8l4-7 9-6 7-7 7-9 5-4zm0 3-5 3-7 10-6 7-11 7-3 4v7l3 5 10 6 9 4h2l2 14 5 4 7 2 10-1 3-5 1-11 3-3 18-7 5-4 2-5v-7l-3-5-5-2-12-1-7-10-3-6-7-5-3-1z" fill="#C3C0AA"/>
<path transform="translate(1442,1173)" d="m0 0h37v21l-5 1-24-2-7-2-1-1z" fill="#FDFDFD"/>
<path transform="translate(1082,1076)" d="m0 0h10l7 4 2 4v15l-3 10-3 3h-12l-4-4-2-7v-11l2-11z" fill="#0F1419"/>
<path transform="translate(498,1251)" d="m0 0 1 4-1 1h-205l-2 43-2 25h-1l-1-6-2-43 1-18 2-4 1 3 5-2 77-1h55l71 1z" fill="#C4B891"/>
<path transform="translate(557,1711)" d="m0 0 10 1 6 5v8l-5 5-6 3h-15l-12-3-3-3 1-7 5-5 4-2z" fill="#111519"/>
<path transform="translate(481,1165)" d="m0 0 2 4 4 10-1 8v17l2-3h1l1-7 4 1v11l3-1v16l-1 2 3-1v4h-3v2h-2l1 8-3 5-6-2-1 2h-4v-2l-10-1v-4l5-1-1-3v-3l4-1v2l4-1 1-2h4l-2-2-4 1v-24l-2-34z" fill="#263338"/>
<path transform="translate(388,777)" d="m0 0h8l4 2 1 2v34l-2 1h-12l-4-1-1-2v-22l2-12z" fill="#0E1217"/>
<path transform="translate(1077,720)" d="m0 0h90l8 7 10 8 5 5 7 4 4 1 22 1 41 1 18 2 15 2h46l27-1h67l2 1v3l-3-1h-142l-26-3-13-1-50-1-11-2-8-4-9-8-6-8-3-3-3-1h-179v-1z" fill="#C3C0AA"/>
<path transform="translate(1615,1713)" d="m0 0h15l9 2 5 4v6l-3 3-4 2-6 1h-27l-3-3-1-2v-7l4-4z" fill="#12161A"/>
<path transform="translate(1054,1364)" d="m0 0h17l3 2 1-2h40l-3 3-2-1-7 4h-8l1 6-28 2h-17l-1-7 1-6z" fill="#192329"/>
<path transform="translate(383,963)" d="m0 0h17l1 1v34l-3 1-14-2-2-1v-29z" fill="#13191E"/>
<path transform="translate(384,903)" d="m0 0h15l2 1v32l-1 1h-8l-8-2-2-2v-26z" fill="#0E1217"/>
<path transform="translate(1173,1335)" d="m0 0 3 2 1 4-1 3 3 5v10l2 9 1 4 1 10v9l-2 13-3 5-3 8-2 1h-6l4-8 1-3v-55z" fill="#192329"/>
<path transform="translate(388,715)" d="m0 0 10 1 3 5v18l-2 6-1 1h-12l-5-5-1-5v-13l3-7z" fill="#0F1319"/>
<path transform="translate(1254,861)" d="m0 0 6 2 1 1v8l-3 5-9 5h-6l-5 1-25-1-11-2-12-1-1-2-10-1v-1l46-1 16-1 8-3 3-4z" fill="#D7B355"/>
<path transform="translate(399,839)" d="m0 0 2 1v30l-3 2-13-1-2-3v-28z" fill="#192329"/>
<path transform="translate(1081,1286)" d="m0 0 3 1h30l1 3-12 4-6 4-1 2-6 3-16 1-9-4-1-4h2l1-8z" fill="#192329"/>
<path transform="translate(384,1128)" d="m0 0h29l10 2 12 7 8 7v2h2l9 13-1 2-3-2v-3h-2l-3-6-3-3v-2h-2v-2l-4-1-10-7-19-5h-19l-11 2-10 5-9 6-9 8-6 8-3 8h-2l1 7-3 9-1 1v23l1 1v8 3 3h-2v2h-3v-45l4-12 7-13 8-9 11-8 14-7z" fill="#273439"/>
<path transform="translate(486,1714)" d="m0 0h13l8 2 4 4-1 7-4 3-4 1h-21l-5-3-2-6 2-4 6-3z" fill="#12161A"/>
<path transform="translate(774,1144)" d="m0 0h19l4 1v12l-3 5h-13l-14-2-2-4 1-11z" fill="#FDFDFD"/>
<path transform="translate(707,1145)" d="m0 0h16l13 1 1 1v13l-2 2-5 1h-21l-3-2z" fill="#FDFDFD"/>
<path transform="translate(539,580)" d="m0 0 2 1-16 16-8 10-10 15-8 14-8 18-5 17-5 21-2 10-2 16v35l6 36 9 27 10 21 8 15-1 2-8-14-12-24-6-19-4-16-5-31v-32l4-26 5-21 7-22 8-17 8-13 8-12 14-16z" fill="#273439"/>
<path transform="translate(658,1122)" d="m0 0h7l10 9v3l-9 3-1 2h2v2l4 4 3 6 3 3-1 5-7-1-10-10-6-10-2-7 3-6z" fill="#0F1419"/>
<path transform="translate(1043,903)" d="m0 0 87 1 42 1v1l-52 1-57 1-14 1-5 3-2 7v3h-5l-2-2v-7l4-7z" fill="#13191E"/>
<path transform="translate(1790,617)" d="m0 0h8l3 5v16l-2 3h-14l-4-6-1-3v-11l6-3z" fill="#C3BDA2"/>
<path transform="translate(993,1220)" d="m0 0 1 4v3l-3 2 5 2-1 5-5 5-6 9-10 18-3-2v-2l-4-1-1-4 10-17 8-10 5-7h2z" fill="#C3BEA4"/>
<path transform="translate(1217,651)" d="m0 0h71l5 5v6l-5 5-2 1h-44l4-3 1 1h29l5-2 7-7 1-2-10 1-4-1-9 1h-14l-7-1h-24l-4-2z" fill="#182228"/>
<path transform="translate(1697,980)" d="m0 0 5 5 5 9 1 4v21h14l15 1 15 5 7 4-2 1-15-6-3-1h-31l-12 5-4-1 2-10 8-15 1-10-6-10z" fill="#C3BB9A"/>
<path transform="translate(548,1092)" d="m0 0h124l2 2-14 2-1-1h-7l-7 1h-40l-4-1-33-1-20 1h-10-3l-14 1h-11v-2l-4-1z" fill="#D8B456"/>
<path transform="translate(389,622)" d="m0 0h7l5 5 2 5v9l-4 4-2 1h-8l-5-3-3-3v-7l4-7z" fill="#0F1318"/>
<path transform="translate(498,409)" d="m0 0h11l9 2 11 8 7 7-1 2-8-8-11-7-4-1h-16l-11 4-10 7-9 9-5 10-1 3v15l3 9 8 11 7 7 10 7 9 3h9l10-2 7-4 2 1-8 5-7 2-10 1-12-3-9-6-8-7-9-12-5-13v-16l2-7-1-2 5-6h2l2-5 2-2 9-5 13-6z" fill="#273439"/>
<path transform="translate(963,649)" d="m0 0h51v1l-40 1-2 2-5 1-6 5 1 4 1 2 6 1h55l4-2 2 1v2l51 1v1h-119l-5-1-2-4v-8l2-6z" fill="#212C30"/>
<path transform="translate(1244,706)" d="m0 0h54l2 3-6 2-12 2h-19l-19-1-4-1-13-1-22-1v-1z" fill="#0F1419"/>
<path transform="translate(1717,1260)" d="m0 0 10 1 2 3v10l-9 7h-7l-6-3-2-4 3-10 4-3z" fill="#12171B"/>
<path transform="translate(494,1140)" d="m0 0h2l3 6-1 6 4 2 1 4-1 2 3 9 1 12 2 1 1 4v18l-1 7 1 8 3 8 1 4 2 2-1 2 4 1-1 2-4-2-5-5-5-3v-42l-1-14-6-21-3-9z" fill="#D6B254"/>
<path transform="translate(1625,1263)" d="m0 0 8 2 4 5 1 8-3 5-2 1h-12l-5-4-1-7 5-8z" fill="#11171C"/>
<path transform="translate(1504,1175)" d="m0 0h11l7 2 2 6v6l-2 1h-20l-5-4-1-2v-7z" fill="#1B262B"/>
<path transform="translate(1720,1310)" d="m0 0 6 2 4 4 1 10-2 4-4 2-9-1-7-6-1-6 4-5z" fill="#1D262A"/>
<path transform="translate(1389,1175)" d="m0 0 34 1 3 3-1 6-6 5-6 2h-4l-1-5-9-2-6-1 1-7-5-1z" fill="#263338"/>
<path transform="translate(970,610)" d="m0 0h12l6 2 4-1 3 3-1 4-13 3-2 2v1l29 1v1h-49v-1h8v-2-1l-6-2v-2l3-2 3-5z" fill="#263338"/>
<path transform="translate(420,507)" d="m0 0 7 1 7 6-1 7-5 5-4 2-7-1-7-8 1-7 6-4z" fill="#13191E"/>
<path transform="translate(1089,1165)" d="m0 0 8 1 6 7v7l-5 4-3 1h-10l-5-6 1-9 3-3z" fill="#F7F6F3"/>
<path transform="translate(288,1253)" d="m0 0 1 3 5-2h22v2h-23l-2 43-2 25h-1l-1-6-2-43 1-18z" fill="#CBC3A6"/>
<path transform="translate(387,881)" d="m0 0h11l3 2v17l-1 1h-12l-6-3-1-7 2-8z" fill="#FDFDFD"/>
<path transform="translate(1618,1360)" d="m0 0h12l6 4 1 2v6l-4 5-6 1h-8l-6-6v-7z" fill="#1D272C"/>
<path transform="translate(1882,1310)" d="m0 0 8 1 5 6 1 7-3 5-7 3-6-1-6-6v-6l6-8z" fill="#111519"/>
<path transform="translate(1669,1310)" d="m0 0h5l4 5 4 6-1 5-4 6h-8l-8-5-1-2v-7l5-6z" fill="#212B2E"/>
<path transform="translate(1623,1312)" d="m0 0 9 3 4 6v5l-6 5-4 1h-8l-5-4v-9l5-5z" fill="#11161B"/>
<path transform="translate(1819,1311)" d="m0 0 9 1 5 5-1 9-5 5-4 1-7-3-5-5-1-5 5-6z" fill="#171A1B"/>
<path transform="translate(872,1099)" d="m0 0 2 2 1 8h-2v6l-5 9-1 4h-3v3l-4 1v4l-6 3h-3v2l-5 3-7 1-1-2 9-7 8-7 7-10 7-17z" fill="#10151A"/>
<path transform="translate(1620,1457)" d="m0 0h9l6 5 1 2v6l-9 7-6-1-6-4-3-7 4-6z" fill="#12161A"/>
<path transform="translate(1885,1359)" d="m0 0h7l6 5 2 6-4 7-5 3-9-2-4-4-1-5 3-6z" fill="#14181B"/>
<path transform="translate(1765,1457)" d="m0 0h7l5 3 3 5-1 5-6 7h-7l-6-4-4-5 1-4 4-5z" fill="#10151A"/>
<path transform="translate(499,431)" d="m0 0h8l7 3 6 7 3 9v10l-5 10h-2l-2 4-6 3-9 1-11-7-8-9-1-4v-8l7-13 8-5zm0 2-7 3-5 5-4 6-2 6 1 6 4 6h2l2 4 8 5h7l7-3v-2l4-2 4-6 1-3v-8l-3-8-5-6-7-3z" fill="#273439"/>
<path transform="translate(1815,1458)" d="m0 0 9 1 7 6v6l-8 7-7-1-5-3-4-7 2-5 3-3z" fill="#12161A"/>
<path transform="translate(515,649)" d="m0 0 1 2-6 15-4 12-4 16-3 19v32l3 1h8l1-3 1-17 7-40 10-25 3-3-2 6-8 21-7 38-2 23-1 2h-14l-2-1v-33l2-14 7-29 9-21z" fill="#C4B78D"/>
<path transform="translate(1883,1410)" d="m0 0h8l6 4 3 4-2 6-6 7-3 1-7-4-4-5v-7l2-4z" fill="#13171A"/>
<path transform="translate(1610,864)" d="m0 0 3 1-2 5-6 8-10 6-7 3h-6l-4-4 5-5 6-5 16-7z" fill="#192329"/>
<path transform="translate(1883,1459)" d="m0 0 9 1 6 5 1 3-4 7-5 4h-6l-5-3-4-5 1-5 5-6z" fill="#13171A"/>
<path transform="translate(1715,1458)" d="m0 0h7l6 4 2 6-7 8-3 2-7-1-7-8 1-5 6-5z" fill="#12161A"/>
<path transform="translate(1619,1410)" d="m0 0h10l6 5 1 7-5 5-5 2h-6l-6-6v-8z" fill="#13171A"/>
<path transform="translate(958,1312)" d="m0 0 7 1 5 5v5l-6 7-2 1h-9l-5-5v-9l5-4z" fill="#F6F4F0"/>
<path transform="translate(1814,1410)" d="m0 0h8l6 5 1 2v6l-7 7h-7l-5-4-2-3v-8l4-4z" fill="#12161A"/>
<path transform="translate(880,1118)" d="m0 0h5l-1 7-7 11-11 11-8 5-4-1 1-7 5-6 7-3 1-4h3v-2h2l2-7z" fill="#0F1419"/>
<path transform="translate(1665,1262)" d="m0 0h10l5 5v8l-5 6-5 1-8-4-3-3 1-8z" fill="#12181D"/>
<path transform="translate(1712,1410)" d="m0 0h10l6 5 1 6-5 5-4 2-9-1-4-4-1-8 4-4z" fill="#14191C"/>
<path transform="translate(324,509)" d="m0 0h8l6 4 1 7-6 7-7 1-5-3-4-5-1-3 4-6z" fill="#11161A"/>
<path transform="translate(1764,1360)" d="m0 0h10l4 5 1 6-3 5-3 3h-8l-5-4-2-4v-6z" fill="#0F1419"/>
<path transform="translate(1763,1410)" d="m0 0h10l5 5v9l-5 5-5 1-6-3-4-5 2-9z" fill="#15191C"/>
<path transform="translate(1820,1262)" d="m0 0 9 1 4 5-1 7-6 5-5 1-7-4-4-5 2-5 5-4z" fill="#11161A"/>
<path transform="translate(647,967)" d="m0 0 2 4v7l-3 3 3-1 6 5 1 2 6 2v3l-16 2-9 2h-7l2-4v-1l5-8h2v-2l6-3 1-10z" fill="#283439"/>
<path transform="translate(1343,1123)" d="m0 0 4 4 5 8v4h2l5 9 1 4h2v2h2l7 9 6 4v2l9 2 3 3h-7l-14-8-10-9-6-7-7-14-2-6z" fill="#D6B254"/>
<path transform="translate(1819,1358)" d="m0 0 7 1 4 5 1 7-5 6-2 1h-6l-6-5-2-3 1-5z" fill="#11161A"/>
<path transform="translate(1517,521)" d="m0 0h11l13 2 1 1v5l-4 1v5h-10l-10-2-2-2v-8z" fill="#FDFDFD"/>
<path transform="translate(1716,1362)" d="m0 0h9l5 3 1 1v6l-3 5-10 2-6-2-3-3v-6l5-5z" fill="#15181B"/>
<path transform="translate(1081,1021)" d="m0 0h1v14l4-4v-3l3-1 3 5 1 3-1 9-1 7-9 8 9 1v1h-11v-26z" fill="#1A252A"/>
<path transform="translate(1763,1263)" d="m0 0h9l7 6 1 3-4 7-5 4-7-3-5-5 1-8z" fill="#13181C"/>
<path transform="translate(1763,1313)" d="m0 0h10l5 5v9l-3 4h-9l-5-3-3-8 3-5z" fill="#15191C"/>
<path transform="translate(1887,1262)" d="m0 0 7 2 5 6-1 5-7 6h-7l-5-3-1-2v-6l4-6z" fill="#11161B"/>
<path transform="translate(1183,411)" d="m0 0h19l1 1v13h-21v-12z" fill="#F0EFE9"/>
<path transform="translate(373,508)" d="m0 0h7l6 4 2 4-1 6-6 5h-6l-5-4-3-7 3-5z" fill="#14181B"/>
<path transform="translate(1669,1410)" d="m0 0 7 1 5 7v5l-7 8-5-2-7-6-1-5 4-6z" fill="#11161B"/>
<path transform="translate(880,569)" d="m0 0 5 2 2 3v146h-1l-1-145h-17l-16 1v-4l2-2h9l1 1 13-1z" fill="#273439"/>
<path transform="translate(1240,261)" d="m0 0h46l23 4 22 5 11 4-3 1-17-5-28-5-8-1h-44l-24 3-22 4-17 5-4-1 19-6 31-6z" fill="#C5B585"/>
<path transform="translate(393,819)" d="m0 0 6 2 1 1v13l-3 2h-8l-6-3-1-2 1-10 2-2z" fill="#FDFDFD"/>
<path transform="translate(1671,1458)" d="m0 0 5 1 5 5 1 5-5 5-3 2h-6l-6-4-2-5 6-7z" fill="#11161A"/>
<path transform="translate(295,1245)" d="m0 0h38l23 1h137v1l-98 2-52-1-27-1h-20l-7 6 2-4z" fill="#C5B481"/>
<path transform="translate(667,1118)" d="m0 0 9 3 5 4 4 6 4 3v2l4 2 1 3 8 2v1h-14l-8-7-16-16z" fill="#D7B357"/>
<path transform="translate(365,556)" d="m0 0h13l3 3v8l-5 5-8 1-7-8-1-5z" fill="#13181D"/>
<path transform="translate(652,1255)" d="m0 0h8l10 4 7 6 4 7 1 10-3 9-5 10-7 7-7 3h-11l-8-3-6-7-8-14v-7l4-10 7-9 9-5zm1 1-9 3-8 7-5 7-2 7 1 9 9 15 5 4 3 1h13l8-4 7-8 5-13v-10l-4-8-7-6-6-3z" fill="#C3C0AA"/>
<path transform="translate(1526,995)" d="m0 0h2l-1 5-3 3h-3v2l-6 4h-2v4h-2v3l-7 6-5 8-2 9-1 4-5 5h-1l1-9 7-16 9-12 6-7 11-8z" fill="#11171C"/>
<path transform="translate(1039,702)" d="m0 0h81l19 1v1l-46 1h-76v-1l21-1z" fill="#273439"/>
<path transform="translate(891,1097)" d="m0 0h1v7l-3 17-1 9-5 6-4 5-3 1v2h-2v2h-2v2l-10 4-4 3-6 1v-2l11-6 10-9 5-6 6-11 4-13z" fill="#D3B360"/>
<path transform="translate(391,842)" d="m0 0h7v23l-1 2-7-2-4-6v-14z" fill="#0E1217"/>
<path transform="translate(985,722)" d="m0 0h68v1l-26 1-2 1 3 2-2 4-4-1v-2l-5 1h-3-6l-2 1v-2h-6l-1 2v-2l-8 1 1-4-7-2z" fill="#C9A44A"/>
<path transform="translate(1207,1378)" d="m0 0 5 1-2 5-1 3h4l6-1 2 1-4 6-2 7-8 5-7 3-2 1 1-9 8-4 1-2-3-1 1-3v-10z" fill="#192329"/>
<path transform="translate(1731,995)" d="m0 0 3 4 21 3 12 5 11 7 7 6 11 15 5 10 2 5 2 13v10l-4 16-8 14-3 2 2-5 6-10 4-14v-17l-4-15-5-9-7-9-5-6-8-6-11-7-12-4-17-2-2-3z" fill="#273439"/>
<path transform="translate(1538,1176)" d="m0 0 3 1 1 14h-17l-2-8v-5l2-1z" fill="#FCFBFA"/>
<path transform="translate(674,897)" d="m0 0 7 1 10-1 10 1v3l-8 4v4l7 2v1l-21 1-2-3v-4l6-4v-2h-10-3l1-2z" fill="#192329"/>
<path transform="translate(325,554)" d="m0 0 5 1 8 6-1 4-8 7-5-1-7-8 2-4z" fill="#181C1D"/>
<path transform="translate(700,655)" d="m0 0h15v15h-15l-1-1v-13z" fill="#F6F5F3"/>
<path transform="translate(385,1071)" d="m0 0 11 1 8 4 2 2 7 3 1 3-1 1h-7l-7-3-8-2-5 1-5 2-1-4 2-4h2z" fill="#D6B45B"/>
<path transform="translate(1671,1357)" d="m0 0 4 1 4 9-1 6-1 2-5 1-10-5-2-2 1-4 8-7z" fill="#212A2C"/>
<path transform="translate(1659,1110)" d="m0 0 4 2-2 4-1 1 9 1 8 1 1 4-2 2h-14l-14 1-2-1 1-4 3-3 6-1v-5z" fill="#0E1217"/>
<path transform="translate(1207,665)" d="m0 0 5 1 3-1 9 1h13l5 1 38 1v1h-142v-1l43-1 5-1h9l4 1 2-1h3z" fill="#1E292F"/>
<path transform="translate(385,945)" d="m0 0h10l4 4v9l-2 3h-10l-4-3v-10z" fill="#FDFDFD"/>
<path transform="translate(1325,1402)" d="m0 0h8l3 3v8l-5 5h-7l-4-2-1-7 2-5z" fill="#141A1F"/>
<path transform="translate(739,655)" d="m0 0h12l1 1v11l-3 3h-9l-2-1v-13z" fill="#F1EFE6"/>
<path transform="translate(1560,952)" d="m0 0 3 1-1 18h2l2 5 4 1 3-3-1 5-7 10-4-1-1-1-1-10v-21z" fill="#D2B35F"/>
<path transform="translate(1282,999)" d="m0 0h28l26 2v1l-33 1h-35v-2h-13v-1z" fill="#131A1F"/>
<path transform="translate(927,780)" d="m0 0 4 2-11 29-4 13-2-2-1-9 1-3h2l1-8 1-3 3-3 1-6 1-4h2z" fill="#273338"/>
<path transform="translate(387,817)" d="m0 0h12l4 4v12l-2 5-4 1h-13l-4-4v-13l3-4zm6 2-8 1-2 2-1 10 4 4 3 1h8l3-2v-13l-5-3z" fill="#C3C0AA"/>
<path transform="translate(1646,1164)" d="m0 0 1 3-7 14h-2v2l-5 2v2l-8 4h-9l-3-2 14-6 10-8 7-9h2z" fill="#D5B154"/>
<path transform="translate(699,981)" d="m0 0h7l2 1v3l4 1 7 10 3 5 1 7 5 11 1 11-2-1-4-15-7-14-8-10-9-7z" fill="#D6B254"/>
<path transform="translate(1088,1449)" d="m0 0h8l2 3v7l-3 4h-8l-2-1v-2h-2v-8z" fill="#F0EDE3"/>
<path transform="translate(1018,1210)" d="m0 0m-1 1m-1 1m-1 1 2 3 1-3h3l1 3h-2l-2 4-3 1-2 4-4 1-1 3-5 5-5 2h-2v-5l-6-1 1-3h4l2 3 4-1 3-5h2l2-4z" fill="#212A2D"/>
<path transform="translate(944,306)" d="m0 0 13 5 17 8 16 9 2 2-7 1-9-6-10-4-14-8-8-5z" fill="#D5B55D"/>
<path transform="translate(817,966)" d="m0 0h2l1 5v9l2 13 3 11 7 10-1 2-6-5-4-9-4-16-1-8-5-7-4-3z" fill="#D4B155"/>
<path transform="translate(384,942)" d="m0 0h13l4 3v16l-1 1-13 1-6-2-1-3v-12l1-3zm1 3-2 3v10l4 3h10l2-3v-9l-4-4z" fill="#C3C0AA"/>
<path transform="translate(1199,904)" d="m0 0h38l7 4v6l-6 9h-12v-1l11-2 1-1v-9l-1-3-39-1z" fill="#10151A"/>
<path transform="translate(1384,972)" d="m0 0 1 2-5 10-3 11-4 6-1 4h-2l-2 6-4 1v2l-11 6 1-3 7-6 9-13 8-16 4-9z" fill="#D4B156"/>
<path transform="translate(388,879)" d="m0 0h9l5 2 1 2v17l-2 3h-9l-10-1-3-3v-15l4-4zm-1 2-4 2-2 8 1 7 6 3h12l1-1v-17l-3-2z" fill="#C3C0AA"/>
<path transform="translate(990,1231)" d="m0 0h6l-1 5-5 5-6 9-8 15-3 1 1-7 3-6 4-6 2-5 4-4 1-6z" fill="#F2F0E8"/>
<path transform="translate(388,777)" d="m0 0h8l4 2 1 2v34l-2 1h-12l-4-1-1-2v-22l2-12zm-1 2-2 3-1 6v22l2 3 4 1h10v-31l-2-4z" fill="#273439"/>
<path transform="translate(1641,483)" d="m0 0h9l2 2v8l-4 4-7-1-3-5z" fill="#FDFDFD"/>
<path transform="translate(957,1228)" d="m0 0 3 1-1 6-3 1-1 7-2 2-2 7-7 14-2 5h-1v-7l10-25z" fill="#1B252B"/>
<path transform="translate(682,447)" d="m0 0h1v7l-5 13-5 14h-2l-1 3-1-5 4-15 5-14z" fill="#1A252B"/>
<path transform="translate(612,555)" d="m0 0h6v2l3 2-17 7-8 4-3-1-1-3 2-4 6-1 4-3 7-2z" fill="#273438"/>
<path transform="translate(1544,1173)" d="m0 0 4 1-5 1 3 11 7 2 33-1h31v1l-9 1-37 1h-23l-6-1v-15z" fill="#232F34"/>
<path transform="translate(481,1165)" d="m0 0 2 4 4 10-1 8v22h-2v5h-1l-3-43v-5z" fill="#273439"/>
<path transform="translate(1672,1313)" d="m0 0 2 2v4l4 2 1 6-8 1-5-3v-2l-3 1-2-4 4-4z" fill="#0E1217"/>
<path transform="translate(857,888)" d="m0 0h1v11l-1 4 3 5-1 7-2 7h-3l-4 4v-11l3-6z" fill="#D6B356"/>
<path transform="translate(399,839)" d="m0 0 2 1v30l-3 2-13-1-2-3v-28zm-13 2-1 1-1 7v9l2 9 5 2h8l1-2v-24l-1-2z" fill="#273439"/>
<path transform="translate(1145,1160)" d="m0 0 6 1 15 8 12 8 13 10 18 18-1 3-4-5-7-6v-2l-4-1-5-6-5-3-5-5-11-7-15-9-7-3z" fill="#161D22"/>
<path transform="translate(728,1044)" d="m0 0h2v10l-2 4h-2l-1 7-4 1-3 6-6 5h-2l-1 3-5 2 2-4 10-10 7-11z" fill="#D4B259"/>
<path transform="translate(1789,616)" d="m0 0h10l3 4 1 3v14l-3 5-2 2h-12l-5-5-3-12 1-7zm1 1-9 3-1 1v11l4 8 1 1h14l2-3v-16l-3-5z" fill="#273439"/>
<path transform="translate(1408,1176)" d="m0 0h15l3 3-1 6-6 5h-9v-4l9-3v-4h-9l-3-2z" fill="#1A252A"/>
<path transform="translate(383,1016)" d="m0 0h18l1 3v39l-1 1h-16l-3-2v-38zm1 1-1 6v33l3 1h14l1-2v-36l-1-2z" fill="#253136"/>
<path transform="translate(384,903)" d="m0 0h15l2 1v32l-1 1h-8l-8-2-2-2v-26zm1 1-1 1v25l3 3 8 3 5-1v-30l-1-1z" fill="#273439"/>
<path transform="translate(1431,399)" d="m0 0 2 2 10 30 3 13-1 7-1 1h-9l-6-3-1-4 4 2h10v-9l-5-19-5-13z" fill="#C5B68A"/>
<path transform="translate(1371,750)" d="m0 0h66l2 1v3l-3-1-66-1z" fill="#C3BFA8"/>
<path transform="translate(1788,589)" d="m0 0h7l10 4 12 9 8 10 5 10 1 3v11l-2 2v-11l-3-8-5-8-9-10-8-6-7-3h-11l-9 5h-3l6-5z" fill="#273439"/>
<path transform="translate(866,948)" d="m0 0 2 4-4 10-5 14-3 7-2-1v-6l4-12 1-6 3-3 1-4z" fill="#283439"/>
<path transform="translate(693,1145)" d="m0 0h12l1 3-1 10-4 2h-8v-1h5l-3-9z" fill="#273439"/>
<path transform="translate(1393,1184)" d="m0 0h9l6 3-1 5h-19l1-5z" fill="#FAF9F5"/>
<path transform="translate(385,904)" d="m0 0h14l1 1v30l-5 1-10-4-1-2v-25zm2 1-2 3v16l4 3 3 5 4 3 3-1v-29z" fill="#192329"/>
<path transform="translate(1669,1719)" d="m0 0h6l8 5-2 5-2 1h-9l-2-5z" fill="#3D3D34"/>
<path transform="translate(738,1148)" d="m0 0h27l-1 7-1-2h-17l-4 4h-4z" fill="#253237"/>
<path transform="translate(1798,618)" d="m0 0 2 1 1 3v16l-2 3h-14l-4-6-1-3v-11h1l2 12 9 4h6z" fill="#C9A44A"/>
<path transform="translate(1077,1163)" d="m0 0 6 1-2 4h-2l1 3v9l-1 1-1 3-2-1-2-6-6 1 3-6 1-3h2l2-5z" fill="#192329"/>
<path transform="translate(295,1245)" d="m0 0h38l41 2v1h-31l-27-1h-20l-7 6 2-4z" fill="#C3BC9C"/>
<path transform="translate(388,715)" d="m0 0 10 1 3 5v18l-2 6-1 1h-12l-5-5-1-5v-13l3-7zm-4 2-2 2-1 5v9l3 9 2 2h12l2-6v-16l-2-4-3-1z" fill="#263338"/>
<path transform="translate(713,998)" d="m0 0 4 2 7 14 1 3v7l-3-1v-2l-2-1-2-7-1-4h-2v-3h-2l-2-6z" fill="#10151A"/>
<path transform="translate(895,362)" d="m0 0 8 4 10 1 1 3 5 2 1 2-4 1-11-4-17-5v-2z" fill="#263338"/>
<path transform="translate(1642,480)" d="m0 0 9 1 3 6v6l-2 4-3 2h-8l-5-5v-7l4-6zm-1 3-3 9 5 5 7-1 2-3v-8l-2-2z" fill="#C3C0AA"/>
<path transform="translate(380,1198)" d="m0 0 3 2v14l5 3 3 4 10 1v1h-19l-1-1-2-15v-8z" fill="#D6B55D"/>
<path transform="translate(993,1220)" d="m0 0 1 4v3l-3 2 3 1-4 2h-2v6l-4 2-1 3h-5l-2 1 2-5 9-11 2-3h2z" fill="#C5BC99"/>
<path transform="translate(288,1253)" d="m0 0 1 3 5-2h22v2h-23l-1 25h-1l-1-21h-2l-1 3h-1l1-9z" fill="#C5B482"/>
<path transform="translate(456,1166)" d="m0 0 2 2 4 14v42l-3-3v-43l-3-5z" fill="#303A39"/>
<path transform="translate(1644,558)" d="m0 0 7 6 9 11 11 13 7 11 9 16 1 4-3-3-10-18-9-12-14-17-8-9z" fill="#273439"/>
<path transform="translate(1575,727)" d="m0 0 3 1 3 5v3l7 2 1 9-4 5-3 3-1-15-4-8z" fill="#1A242A"/>
<path transform="translate(539,580)" d="m0 0 2 1-16 16-8 10-10 15-8 14h-2l2-5 6-11 7-10 11-14z" fill="#263338"/>
<path transform="translate(494,1140)" d="m0 0h2l3 6-1 6 4 2 1 4-1 2 3 9-1 17h-1l-1-14-6-21-3-9z" fill="#D4B053"/>
<path transform="translate(500,982)" d="m0 0h6l1 3-14 7-10 10-3 6-2-3 3-5 6-7 6-5 5-5z" fill="#273439"/>
<path transform="translate(1578,538)" d="m0 0 4 2 5 5-2 5h-9l-15-5 4-1 9 1 6-2z" fill="#C9A44A"/>
<path transform="translate(1716,1362)" d="m0 0h9l5 3 1 1v6h-8l-5-4z" fill="#1C262B"/>
<path transform="translate(386,1225)" d="m0 0h41l-4 3-17 1-18-2z" fill="#0E1217"/>
<path transform="translate(758,1396)" d="m0 0h7l2 4-3 7h-5l-5-4 1-5z" fill="#C5B587"/>
<path transform="translate(1863,1358)" d="m0 0h3l1 4v10l-1 2-4 1-3-3v-8z" fill="#545444"/>
<path transform="translate(650,1275)" d="m0 0h10l2 5-3 4h-7l-4-3 1-5z" fill="#C8A859"/>
<path transform="translate(389,622)" d="m0 0h7l5 5 2 5v9l-4 4-2 1h-8l-5-3-3-3v-7l4-7zm1 2-5 5-2 3v8l5 4 2 1h6l5-3 1-2-1-10-5-6z" fill="#273439"/>
<path transform="translate(1288,612)" d="m0 0 4 2-1 5-7 6h-9l2-5 2-1 2 1 1-3 3-1 1-3z" fill="#192227"/>
<path transform="translate(335,1105)" d="m0 0h5l-5 5h-2l-2 4-5 5-5 4-4 4 3-9 12-11z" fill="#13171A"/>
<path transform="translate(798,1420)" d="m0 0 3 1-8 5-6 2-1 3-2 2-3 9-2 3h-2l3-16 10-5z" fill="#D8B456"/>
<path transform="translate(897,728)" d="m0 0 3 4 1 17-1 3-4-1-1-6v-8z" fill="#273439"/>
<path transform="translate(1131,904)" d="m0 0h68l-1 2-26 1v-2h-41z" fill="#1C262B"/>
<path transform="translate(1491,1076)" d="m0 0 3 2 4 12 3 2 3 6 2 5-2 3-7-11-6-13z" fill="#12181D"/>
<path transform="translate(833,585)" d="m0 0h2l-1 20 1 4-2 4-3-2v-19l1-6z" fill="#273439"/>
<path transform="translate(1720,1410)" d="m0 0 5 2 3 3 1 6-5 5h-2l-3-15z" fill="#191C1C"/>
<path transform="translate(1669,1310)" d="m0 0h5l4 5 4 6-1 5h-3l-2-6-2-1-2-5-9 3 4-6z" fill="#1F2A2E"/>
<path transform="translate(885,1078)" d="m0 0 6 2 1 2v7h-1v-6l-7 2-11 4 1-5 3-3 8-1z" fill="#273439"/>
<path transform="translate(399,783)" d="m0 0h1v31h-10l-5-2-1-2v-22h1l1 20 10 4h2z" fill="#192329"/>
<path transform="translate(1102,1086)" d="m0 0h1l1 20-4 6-4 3-10-1v-1l8-1 3-3 4-13z" fill="#D5B256"/>
<path transform="translate(560,937)" d="m0 0h7l-1 4-7 6-4 4-2-5 3-7z" fill="#283438"/>
<path transform="translate(1356,1155)" d="m0 0 7 6 10 7 9 5v2h-5l-1-3-5-1-8-6-5-3-2-1z" fill="#151C21"/>
<path transform="translate(1347,1021)" d="m0 0 4 1-4 4-2 3-1 9v7h-2l-2-16-1-4z" fill="#D4B055"/>
<path transform="translate(506,1093)" d="m0 0h40v1l-8 1h-3l-14 1h-11v-2z" fill="#D8B456"/>
<path transform="translate(589,1725)" d="m0 0h7l6 8 2 2h-7l-6-4-2-2z" fill="#111519"/>
<path transform="translate(635,984)" d="m0 0 1 3-3 3v3l-2 2 5 1v1l-10 2h-5v-2l5-4 7-8z" fill="#C7AB63"/>
<path transform="translate(1436,763)" d="m0 0 1 2-6 16-5 10h-1l1-9 7-17z" fill="#12171D"/>
<path transform="translate(1717,1311)" d="m0 0 3 1-1 3h-3v8l-4 2-4-2 1-5 5-5z" fill="#181B1D"/>
<path transform="translate(290,1282)" d="m0 0h1v17l-2 25h-1l-1-6v-21l2-1z" fill="#C9A44A"/>
<path transform="translate(1693,946)" d="m0 0 6 2 8 7 8 9 7 11 2 6-4-4-4-7-8-10-6-7-9-6z" fill="#273439"/>
<path transform="translate(390,624)" d="m0 0h6l4 4-1 2-8-5-3 9-2 2 1 5 1 2-4-2-1-1v-8l5-7z" fill="#192329"/>
<path transform="translate(665,490)" d="m0 0h1l-1 8-2 10-1 21-4 2h-9v-1l10-2 2-22z" fill="#273439"/>
<path transform="translate(1079,1145)" d="m0 0h13l19 3 3 3-25-3h-11z" fill="#161D22"/>
<path transform="translate(1041,1230)" d="m0 0 4 1v3l-8 4-5 2-4-1 5-5 5-3z" fill="#1B252B"/>
<path transform="translate(401,940)" d="m0 0h2v2h2v17l-4 2-1-16-3-3z" fill="#D8B456"/>
<path transform="translate(1756,629)" d="m0 0 2 1 4 9 5 10-3 1v-2l-3-1 1-3h-4l-2-9z" fill="#0E1217"/>
<path transform="translate(979,422)" d="m0 0 3 3 7 11 1 2-5-2-12-8 3-2h2v3l1-5z" fill="#C7BB94"/>
<path transform="translate(1882,1310)" d="m0 0h5l-5 4h-2v3l-3 3v5h2v3l3-1v2l4 3-6-1-6-6v-6l6-8z" fill="#2A312F"/>
<path transform="translate(736,1424)" d="m0 0 6 2 5 4 2 11 1 3 2 1h-3l-3-4-1-6h-2l-3-5z" fill="#D8B456"/>
<path transform="translate(1183,1183)" d="m0 0 4 1 5 4 17 17-1 3-4-5-7-6v-2l-4-1-5-6-5-3z" fill="#131A1F"/>
<path transform="translate(323,555)" d="m0 0 2 1-1 2 3-1v4h-4v4l2 1 1 5-4-2-5-6 2-4z" fill="#172025"/>
<path transform="translate(772,1372)" d="m0 0 4 2 5 6 4 6 5 3 4 1v2h-8l-6-8-6-9z" fill="#D8B456"/>
<path transform="translate(475,1015)" d="m0 0 1 3-1 5v10l3 12 2 7-3-3-4-11-1-5v-11z" fill="#273439"/>
<path transform="translate(1247,858)" d="m0 0h5l1 1v7l-5 6h-3v-2h2z" fill="#12181D"/>
<path transform="translate(1232,607)" d="m0 0h52l5 5h-4l-2-4h-51z" fill="#202C32"/>
<path transform="translate(868,992)" d="m0 0h1l1 5 10 2h9v2h-38v-1h17l-1-6z" fill="#C3BFA8"/>
<path transform="translate(1233,1298)" d="m0 0h4 1l1 12-7-1-2-1 2-6z" fill="#192329"/>
<path transform="translate(1128,904)" d="m0 0 44 1v1l-50 1v-2z" fill="#0E1318"/>
<path transform="translate(695,982)" d="m0 0 5 1 11 9 1 4-5-2-4-5h-3l-3-2z" fill="#131A1F"/>
<path transform="translate(1053,1022)" d="m0 0h27v6l-5-4h-40v-1z" fill="#D8B456"/>
<path transform="translate(1064,1363)" d="m0 0h51v1h-39l-1 2-11-2z" fill="#273439"/>
<path transform="translate(1234,1363)" d="m0 0 1 3-5 8-1 4h-3l-3 3 2-5 5-10z" fill="#263338"/>
<path transform="translate(728,1044)" d="m0 0h2v10l-2 4-5 2 1-6z" fill="#D2B465"/>
<path transform="translate(1367,997)" d="m0 0 2 1-1 4-7 10h-2l1-7h2v-2h2l2-5z" fill="#11161C"/>
<path transform="translate(960,1308)" d="m0 0 5 2 7 5-1 4-6-5-11-2 3-3z" fill="#1A242A"/>
<path transform="translate(978,1242)" d="m0 0 3 1-4 8-5 6-1-4 4-9z" fill="#F5F4F0"/>
<path transform="translate(478,978)" d="m0 0h2l1 3-5 5-6 7-3-1 2-2 1-4h2l2-4z" fill="#0E1217"/>
<path transform="translate(1517,519)" d="m0 0h14l10 2v2l-24-2-1 2z" fill="#C4B891"/>
<path transform="translate(1403,370)" d="m0 0h12l6 9 1 4-4-4-4-6-15-1-1 3-1-4z" fill="#C5B586"/>
<path transform="translate(295,1245)" d="m0 0h38v1l-37 1-7 6 2-4z" fill="#CABA89"/>
<path transform="translate(1379,976)" d="m0 0 1 4-5 10-2 1v-8l4-6z" fill="#11161B"/>
<path transform="translate(1624,934)" d="m0 0h18l-3 2-10 2h-9l1-2h3z" fill="#10151A"/>
<path transform="translate(1617,1127)" d="m0 0h2v18h-1l-1-8-3-3-2-5z" fill="#D7B357"/>
<path transform="translate(1511,1068)" d="m0 0 3 3-1 2 4 1v3h2l1 4h-3l1 3h-2l-4-8z" fill="#E2DFD3"/>
<path transform="translate(675,1130)" d="m0 0 4 2 10 9 5 2v1h-6l-8-7-5-5z" fill="#C4BB99"/>
<path transform="translate(759,1398)" d="m0 0h6l-1 6-5 1-3-2 1-4z" fill="#273439"/>
<path transform="translate(432,1218)" d="m0 0h5l3 5h-16l4-1 1-3z" fill="#D7B355"/>
<path transform="translate(1544,1173)" d="m0 0 4 1-5 1 3 11 4 3h-8v-15z" fill="#1E292F"/>
<path transform="translate(912,823)" d="m0 0 3 1-2 5-3 9-1-2h-2l2-10z" fill="#2C3738"/>
<path transform="translate(500,1159)" d="m0 0 2 1 3 9-1 17h-1l-1-14-2-8z" fill="#D1AD50"/>
<path transform="translate(665,990)" d="m0 0 10 1 8 4 1 2-5 1-5-2v-2l-9-3z" fill="#293538"/>
<path transform="translate(1245,665)" d="m0 0 7 1h17l3 2h-30z" fill="#192329"/>
<path transform="translate(1638,481)" d="m0 0 2 1-3 5v7l4 4 8 1-2 2-8-1-3-2-2-5 1-7z" fill="#D8B456"/>
<path transform="translate(666,823)" d="m0 0h2l1 3v18h-1l-2-8z" fill="#C5B27D"/>
<path transform="translate(1163,723)" d="m0 0 4 1 2 4-1 4-5-1v-2l-3-1z" fill="#C9A44A"/>
<path transform="translate(475,979)" d="m0 0v3l-3 4h-2l-1 5-4 2-2 5-1 2h-2l2-5 9-12z" fill="#202B31"/>
<path transform="translate(401,879)" d="m0 0 4 4v18l-3 2v-20z" fill="#D8B456"/>
<path transform="translate(921,298)" d="m0 0 9 2 13 5-1 2h-7l-4-4-10-4z" fill="#D5B55F"/>
<path transform="translate(300,1215)" d="m0 0 3 2 1 4-1 2h-6v-2l-3-1z" fill="#263338"/>
<path transform="translate(721,1006)" d="m0 0 3 4 4 9 1 11-2-1-4-15-2-5z" fill="#D3AF52"/>
<path transform="translate(465,993)" d="m0 0 3 1-5 10-4 2v-6h3l2-5z" fill="#0F1419"/>
<path transform="translate(942,744)" d="m0 0h2l-1 9-2 5h-3l-1-5 2-4h2z" fill="#263338"/>
<path transform="translate(611,1710)" d="m0 0h12v3l-4 1-8-1z" fill="#151A1D"/>
<path transform="translate(548,1092)" d="m0 0h21l-1 2-20 1-2-2z" fill="#D7B355"/>
<path transform="translate(935,764)" d="m0 0 2 1-3 10-2 3h-2v-6l3-7z" fill="#253237"/>
<path transform="translate(325,554)" d="m0 0 5 1 2 2h-2l2 7 1 2h-2v2h-2v-2h-2l1-10-3-1z" fill="#21292B"/>
<path transform="translate(1076,1087)" d="m0 0h1l1 14 3 9 3 3-6-2-2-5z" fill="#D3B157"/>
<path transform="translate(972,1249)" d="m0 0 1 3-1 4 1 2h-3v5l-4-1 1-5z" fill="#E0D9C4"/>
<path transform="translate(450,1029)" d="m0 0h1l1 10h2l1 5v8l-2-2-3-12z" fill="#D5B053"/>
<path transform="translate(704,901)" d="m0 0h17l11 2v1l-7 1-7-2-14-1z" fill="#192329"/>
<path transform="translate(1553,817)" d="m0 0h3v11l-1 4h-2z" fill="#C9A44A"/>
<path transform="translate(467,421)" d="m0 0v3l-2 4-4 4-5 2 2-4z" fill="#C8A651"/>
<path transform="translate(1491,1076)" d="m0 0 3 2 3 9-1 4-3-4-2-5z" fill="#141A1F"/>
<path transform="translate(546,965)" d="m0 0h2l-3 16-3-3 2-10z" fill="#263338"/>
<path transform="translate(891,1097)" d="m0 0h1v7l-2 11-3 2 1-8z" fill="#D3AF52"/>
<path transform="translate(1602,944)" d="m0 0h3l-1 3-10 8-4 2 6-7 4-5z" fill="#10151B"/>
<path transform="translate(401,818)" d="m0 0h3l1 2v13l-2 4-1-4v-12z" fill="#D8B456"/>
<path transform="translate(899,291)" d="m0 0 9 2 10 3v2h-7l-1-2-7-1z" fill="#D5B55E"/>
<path transform="translate(288,1389)" d="m0 0h1l1 9v11h-2l-1-2z" fill="#C9A44A"/>
<path transform="translate(823 1e3)" d="m0 0 3 4 4 6 2 5-5-3-3-5-2-5z" fill="#D3AE52"/>
<path transform="translate(1677,1721)" d="m0 0 5 2 1 3-2 3h-3l-2-6z" fill="#1A2022"/>
<path transform="translate(1100,1447)" d="m0 0 4 1v6l-5 1-1-6z" fill="#192329"/>
<path transform="translate(1863,1358)" d="m0 0m-1 1 3 1 1 7h-4l-2-2 1-5z" fill="#161D23"/>
<path transform="translate(1592,986)" d="m0 0 1 2-3 12h-3l1-7 3-6z" fill="#232F35"/>
<path transform="translate(1222,1381)" d="m0 0v3l-3 3-6 1-4 1-1-3 3-3v3l8-3z" fill="#273439"/>
<path transform="translate(1874,1319)" d="m0 0 1 3h2v3h2v3l3-1v2l4 3-6-1-6-6z" fill="#343830"/>
<path transform="translate(650,1275)" d="m0 0h10l2 5-2 2v-5l-11 1-1 3 1-5z" fill="#C3C0AA"/>
<path transform="translate(1383,903)" d="m0 0h2v5l-3 7-3 3 1-7z" fill="#12181D"/>
<path transform="translate(1144,1333)" d="m0 0 4 1-1 5-1 1h-5l-1-3h2z" fill="#243136"/>
<path transform="translate(650,1128)" d="m0 0 2 4 4 10 3 4-1 2-5-6-3-6z" fill="#D3AF52"/>
<path transform="translate(321,560)" d="m0 0 3 1-1 4 2 1 1 5-4-2-4-5 2-1z" fill="#1E292E"/>
<path transform="translate(1055,309)" d="m0 0h2l-2 4-2 2-4 2-1 2-3-1 5-6z" fill="#12181D"/>
<path transform="translate(1197,1195)" d="m0 0 4 2 8 8-1 3-4-5-7-6z" fill="#141B20"/>
<path transform="translate(1393,1184)" d="m0 0h9l4 3-10 1-4-3z" fill="#C5B687"/>
<path transform="translate(864,1147)" d="m0 0 2 1-8 7-6 1v-2l11-6z" fill="#D1AC50"/>
<path transform="translate(1384,972)" d="m0 0 1 2-6 12-2 1 3-9 2-5z" fill="#D3AF52"/>
<path transform="translate(1595,949)" d="m0 0 2 1-12 13-1-3z" fill="#182025"/>
<path transform="translate(845,939)" d="m0 0 3 1v8l-1 3h-2z" fill="#F3F2EC"/>
<path transform="translate(378,884)" d="m0 0h1l1 17-3-1v-12z" fill="#D8B456"/>
<path transform="translate(1041,612)" d="m0 0 6 2-2 4-3 1-2-1z" fill="#273439"/>
<path transform="translate(1515,523)" d="m0 0h1l1 8 3 2 6 1v2l-9-1-2-2z" fill="#C5B584"/>
<path transform="translate(989,1415)" d="m0 0 7 1 1 2-1 2-8-2z" fill="#192329"/>
<path transform="translate(1221,1386)" d="m0 0 3 1-7 11h-1v-5z" fill="#273439"/>
<path transform="translate(1436,763)" d="m0 0 1 2-3 7-4 2 3-9z" fill="#13191E"/>
<path transform="translate(490,730)" d="m0 0h1l2 7h1v5h-3l-2-6v-5z" fill="#192329"/>
<path transform="translate(924,356)" d="m0 0 7 1 5 2v2l-7-1-5-3z" fill="#141A1F"/>
<path transform="translate(1408,296)" d="m0 0h1l-1 12-1 4-4-1-1-2 3-1z" fill="#C4B890"/>
<path transform="translate(739,1385)" d="m0 0 2 1-7 7-5 3-2-1 7-6z" fill="#D8B456"/>
<path transform="translate(722,1055)" d="m0 0 1 4-3 5-4-1 3-5 3-1z" fill="#10161B"/>
<path transform="translate(1431,731)" d="m0 0 10 2 3 1v5h-2l-4-4-7-3z" fill="#12171C"/>
<path transform="translate(610,559)" d="m0 0h2l-1 4-7 3-4-1 4-2z" fill="#1C272D"/>
<path transform="translate(369,556)" d="m0 0h9l3 3-1 3-1-2-8-1z" fill="#263032"/>
<path transform="translate(1720,1410)" d="m0 0 2 1 1 6 2 8-3 1-3-15z" fill="#21292C"/>
<path transform="translate(456,1166)" d="m0 0 2 2 3 9v5l-2-4-3-5z" fill="#273439"/>
<path transform="translate(1678,963)" d="m0 0h5v2l4 2 4 4h-3l-8-6z" fill="#273439"/>
<path transform="translate(1398,866)" d="m0 0h1v5l-4 7-1-4 3-7z" fill="#12171C"/>
<path transform="translate(387,779)" d="m0 0h11l1 4-2-2h-8l-2 2-1 5h-1v-6z" fill="#192329"/>
<path transform="translate(1890,1363)" d="m0 0 5 3 1 5-3 1z" fill="#192329"/>
<path transform="translate(487,1173)" d="m0 0 4 2 1 4 2 1-1 2-4-1z" fill="#253237"/>
<path transform="translate(498,1152)" d="m0 0 4 2 1 4-3 1-1 2z" fill="#D5B154"/>
<path transform="translate(713,1071)" d="m0 0v3l-4 6-5 2 2-4z" fill="#D1AD50"/>
<path transform="translate(1359,965)" d="m0 0 3 1-1 5-3 1-1 2 1-7z" fill="#12171D"/>
</svg>
