<?xml version="1.0" encoding="UTF-8"?>
<svg version="1.1" viewBox="0 0 2048 1640" width="558" height="447" xmlns="http://www.w3.org/2000/svg">
<path transform="translate(717,53)" d="m0 0h35l91 1 94 2 133 1 98 1 17 1 13 23 13 27 10 16 13 24 9 16 12 21 9 14 3 6-1 6-2 2 1 7 7 14 9 17 5 10 9 15 15 26 12 21 12 19 12 21 15 30 11 18 8 13 16 28 14 24 11 18 15 30 14 24 10 16 8 13 14 25 8 14 10 18 13 24 14 24 12 21 10 15 4 7-1 7-15 23-14 22-8 10-12 19-4 10v7l6 11 16 24 9 13 11 17 12 19 14 22 8 13 9 15 16 25 30 45 13 21 10 19 13 18 22 34 14 22 17 26 10 18 11 17 9 14 8 12 8 11 16 25 10 17 9 16 12 17 12 19 13 20 11 17 14 21 11 20 13 20 12 18 7 10 17 26 8 13 7 16 4 16 1 7v21l-4 13-6 7-10 5-18 4h-233l-314-1h-192l-1-1-1-382 1-2h168l-11-23-12-21-10-17-11-19-13-29-9-16-12-21-17-32-15-26-12-22-9-21-10-18-11-19-6-10-6-12-12-22-12-21-10-19-9-20-12-22-14-24-28-52-8-14-8-18-12-22-9-17-4-6v-2h-3l-2 5-13 24-13 23-13 24-12 23-12 21-14 24-8 13-15 27-16 32-12 20-25 45-11 18-10 17-8 16-9 19-10 17-8 13-20 36-14 24-8 13-17 35-11 19-15 24-13 24-4 9h167l1 1v382l-1 1-527 2h-215l-16-4-10-5-5-6-5-12-1-5v-13l3-14 6-21 11-23 15-23 8-11 10-15 16-25 11-18 6-11 8-11 11-18 10-15 11-17 8-12 12-17 10-18 6-11 20-30 10-14 10-16 13-20 11-19 7-11 6-9 12-19 11-17 18-27 10-14 10-18 8-14 15-23 11-16 15-23 14-22 24-39 11-17 14-22 12-17 12-18 9-14 1-8-8-16-10-15-9-12-14-22-13-20 1-6 10-17 7-10 11-20 14-24 14-26 15-27 10-17 13-22 9-14 13-23 10-19 8-16 13-21 28-49 11-17 12-21 8-18 11-19 11-17 16-28 14-25 5-13 16-32 14-25 5-6-4-8-9-15-10-19-9-20-11-21-11-18-12-23-11-20z" fill="#FDDD5E"/>
<path transform="translate(549,819)" d="m0 0 3 1 9 15 11 17 11 15 15 24 16 25 12 20 12 19 9 14 16 25 12 17 13 20 9 16 8 14 10 15 13 18 7 11 16 25 1 5-14 23-8 13-12 22-4 9h167l1 1v382l-1 1-527 2h-215l-16-4-10-5-5-6-5-12-1-5v-13l3-14 6-21 11-23 15-23 8-11 10-15 16-25 11-18 6-11 8-11 11-18 10-15 11-17 8-12 12-17 10-18 6-11 20-30 10-14 10-16 13-20 11-19 7-11 6-9 12-19 11-17 18-27 10-14 10-18 8-14 15-23 11-16 15-23 14-22 24-39 11-17 14-22 12-17 12-18 9-14z" fill="#9B681B"/>
<path transform="translate(1496,821)" d="m0 0h2l7 14 16 24 9 13 11 17 12 19 14 22 8 13 9 15 16 25 30 45 13 21 10 19 13 18 22 34 14 22 17 26 10 18 11 17 9 14 8 12 8 11 16 25 10 17 9 16 12 17 12 19 13 20 11 17 14 21 11 20 13 20 12 18 7 10 17 26 8 13 7 16 4 16 1 7v21l-4 13-6 7-10 5-18 4h-233l-314-1h-192l-1-1-1-382 1-2h168l-11-23-12-21-10-17-4-7 1-5 7-9 10-16 10-15 10-14 10-15 10-18 8-14 14-21 8-11 13-20 16-25 12-19 10-17 16-25 13-20 13-19 10-15 9-14z" fill="#9B681B"/>
<path transform="translate(754,272)" d="m0 0 5 5 7 14 5 13 10 19 18 30 8 16 14 27 9 15 9 16 6 16 15 28 16 28 30 56 7 12 8 18 8 16 12 23 7 12 9 15 10 21 9 16 6 12 3 4 3 1 2-5 6-11 3-2-2 6-10 18-13 25-12 21-14 24-8 13-15 27-16 32-12 20-25 45-11 18-10 17-8 16-9 19-10 17-8 13-20 36-14 24-8 13-17 35-4 7-4-5-13-20-14-21-13-18-12-20-8-15-15-23-10-14-16-25-7-11-15-23-9-16-11-17-14-22-12-19-12-16-8-13-9-15-2-1-5-12-11-18-12-16-14-22-13-20 1-6 10-17 7-10 11-20 14-24 14-26 15-27 10-17 13-22 9-14 13-23 10-19 8-16 13-21 28-49 11-17 12-21 8-18 11-19 11-17 16-28 14-25z" fill="#FDDD5E"/>
<path transform="translate(793,200)" d="m0 0h2l6 15 12 24 10 18 13 23 5 10 5 13 15 29 12 21 14 27 12 22 10 18 7 15 8 18 12 22 14 25 13 24 8 16 7 12 6 11 9 20 20 39 9 15 1 4-8 16-10 17-13 24-4 7-4-1-7-11-8-16-12-23-6-11-7-12-10-19-12-22-12-27-6-10-12-23-24-44-8-13-13-25-6-12-4-10-9-17-8-13-11-22-6-11-9-17-13-21-9-17-7-17-8-16-2-2 2-9 8-16 8-17 12-21 6-8z" fill="#9B681B"/>
</svg>
