<?xml version="1.0" encoding="UTF-8"?>
<svg version="1.1" viewBox="0 0 2048 1640" width="558" height="447" xmlns="http://www.w3.org/2000/svg">
<path transform="translate(714,43)" d="m0 0h99l143 2 233 2 4 5 9 17 9 16 9 17 5 11 15 26 11 19 6 12 14 24 3 5-2 4-3 5 8 16 15 26 8 16 9 16 14 24 9 16 14 24 12 19 12 21 16 32 7 11 15 25 14 25 16 27 12 19 16 33 10 17 12 19 15 26 12 21 11 19 8 13 9 19 12 21 8 13 1 6-12 16-11 18-12 22-16 25-4 6 2 6 13 21 7 11 13 24 11 16 12 17 11 18 10 15 16 25 8 11 10 19 14 22 18 27 12 17 10 16 12 19 13 24 9 12 11 17 24 38 11 16 7 10 9 15 9 17 17 26 10 14 10 15 15 24 14 22 9 16 10 15 14 22 16 25 11 16 12 17 10 17 7 14 10 16 8 16 5 14 2 11v19l-4 11-7 9-12 7-9 2-15 1h-68l-678-1-1-2v-387l4-2h154l13-1-10-20-12-22-11-20-10-21-12-22-12-23-13-23-10-17-15-28-10-19-7-16-10-17-15-28-14-26-11-18-17-32-8-17-8-16-10-17-17-32-14-26-10-16-17-32-6-15-11-20-10-17-6-11-2-1-2 5-10 18-9 14-15 27-8 16-8 17-12 19-12 22-13 23-12 21-8 13-12 21-8 19-13 23-7 11-12 21-15 27-11 19-8 13-16 32-9 17-21 35-14 25-10 18-12 21-13 26-13 23-15 27h78l92 1 1 1v388l-9 1-744 1-16-2-12-6-5-5-4-5-4-9-1-5v-14l5-21 5-12 10-19 8-14 8-16 9-14 10-14 7-10 16-25 14-22 15-23 9-16 13-20 14-22 12-18 8-11 13-20 9-15 6-12 9-14 13-18 24-38 13-20 8-11 6-10 8-15 16-25 18-27 8-11 10-16 11-17 8-13 7-14 11-15 14-22 11-17 18-27 12-17 6-11 8-15 13-20 12-19-7-11-11-18-9-14-11-21-10-14-7-10 2-5 14-25 16-32 7-10 24-42 15-26 7-10 13-23 10-22 13-22 10-15 14-25 12-21 10-17 7-11 8-16 11-21 14-24 10-16 12-20 14-25 12-21 8-16 1-9 24-42 9-16 4-5 3-1-2-5-18-34-13-24-10-18-12-25-15-28-8-14z" fill="#A6DCFE"/>
<path transform="translate(542,821)" d="m0 0 4 2v2h2l12 18 15 23 12 19 12 20 10 15 12 19 11 17 13 19 16 24 10 18 12 20 16 23 8 12 21 32 14 22 4 6 4 3-1 6-8 16-14 25-15 27h78l92 1 1 1v388l-9 1-744 1-16-2-12-6-5-5-4-5-4-9-1-5v-14l5-21 5-12 10-19 8-14 8-16 9-14 10-14 7-10 16-25 14-22 15-23 9-16 13-20 14-22 12-18 8-11 13-20 9-15 6-12 9-14 13-18 24-38 13-20 8-11 6-10 8-15 16-25 18-27 8-11 10-16 11-17 8-13 7-14 11-15 14-22 11-17 18-27 12-17 6-11 8-15 13-20z" fill="#37B4FD"/>
<path transform="translate(1506,821)" d="m0 0h3l8 14 13 20 12 23 13 19 12 17 11 18 10 15 16 25 8 11 10 19 14 22 18 27 12 17 10 16 12 19 13 24 9 12 11 17 24 38 11 16 7 10 9 15 9 17 17 26 10 14 10 15 15 24 14 22 9 16 10 15 14 22 16 25 11 16 12 17 10 17 7 14 10 16 8 16 5 14 2 11v19l-4 11-7 9-12 7-9 2-15 1h-68l-678-1-1-2v-387l4-2h154l13-1-10-20-12-22-11-20-3-9 8-10 10-16 10-15 11-17 12-18 9-13 12-19 12-22 11-17 12-17 22-33 11-18 12-19 15-24 14-22 13-21z" fill="#37B4FD"/>
<path transform="translate(752,265)" d="m0 0 5 5 15 28 12 22 15 28 12 21 11 20 11 25 14 26 9 16 13 25 9 16 11 19 14 27 8 18 11 21 10 18 13 23 11 22 12 21 8 13 10 21 5-2 4-5 1-2h2l-2 5-9 17-7 16-9 15-8 14-13 23-15 27-13 21-13 23-8 19-13 23-7 11-12 21-15 27-11 19-8 13-16 32-9 17-21 35-14 25-10 18-12 21-3 3-5-4-7-11-11-17-19-29-8-12-16-23-13-21-8-15-10-16-16-23-13-20-11-17-14-22-12-19-11-18-15-23-10-15-3-4v-2h-2l-3-4-1-4-14-22-12-19-11-21-10-14-7-10 2-5 14-25 16-32 7-10 24-42 15-26 7-10 13-23 10-22 13-22 10-15 14-25 12-21 10-17 7-11 8-16 11-21 14-24 10-16 12-20 14-25 12-21z" fill="#A6DCFE"/>
<path transform="translate(789,194)" d="m0 0h3l14 27 12 22 14 29 12 22 14 27 10 19 14 24 12 23 8 16 12 25 12 22 15 28 12 23 10 17 17 33 13 28 13 23 15 28 5 9v6l-10 17-7 11-10 18h-3l-2 5-6 5-3-1-14-28-8-13-13-24-13-25-9-16-14-25-11-23-10-21-11-20-9-15-13-25-12-22-16-29-11-25-12-22-14-25-12-22-16-30-13-23-3-3 1-7 24-42 9-16z" fill="#37B4FD"/>
</svg>
